<svg width="17" height="13" viewBox="0 0 17 13" fill="none" xmlns="http://www.w3.org/2000/svg">
<path d="M14.5153 3.50659L8.32336 7.37653L2.13147 3.50659V1.95862L8.32336 5.82855L14.5153 1.95862M14.5153 0.410645H2.13147C1.27234 0.410645 0.583496 1.09949 0.583496 1.95862V11.2465C0.583496 11.657 0.746586 12.0507 1.03689 12.341C1.32719 12.6313 1.72092 12.7944 2.13147 12.7944H14.5153C14.9258 12.7944 15.3195 12.6313 15.6098 12.341C15.9001 12.0507 16.0632 11.657 16.0632 11.2465V1.95862C16.0632 1.54807 15.9001 1.15434 15.6098 0.864035C15.3195 0.573734 14.9258 0.410645 14.5153 0.410645V0.410645Z" fill="#345159"/>
</svg>
