<svg width="82" height="26" viewBox="0 0 82 26" fill="none" xmlns="http://www.w3.org/2000/svg">
<path fill-rule="evenodd" clip-rule="evenodd" d="M15.4999 20.1477C15.701 23.1977 16.0529 25.0977 16.5388 25.7644V25.7811H19.2367C18.4135 24.8804 18.2859 23.4165 17.9797 19.9033C17.9742 19.841 17.9687 19.778 17.9632 19.7144C17.7286 16.7811 16.254 14.8144 13.0702 14.2144C16.1367 13.8477 18.8513 11.9144 18.8513 8.03105C18.8513 3.71439 15.8351 0.831055 9.50098 0.831055H0.0166016V25.7644H2.47986V15.2311H10.2885C14.0253 15.2311 15.3324 17.4144 15.4999 20.1477ZM16.254 8.03105C16.254 11.3644 14.2264 13.1811 9.568 13.1811V13.1644H2.47986V2.91439H9.568C14.2264 2.91439 16.254 4.94772 16.254 8.03105Z" fill="black"/>
<path d="M31.8713 25.7644H29.5253L19.5718 0.831055H21.9177L31.8713 25.7644Z" fill="black"/>
<path d="M42.6962 0.831055H45.0422L35.0886 25.7811H32.7427L42.6962 0.831055Z" fill="black"/>
<path d="M49.5834 0.831055V23.6811H63.9942V25.7811H47.0698V0.831055H49.5834Z" fill="black"/>
<path d="M69.8595 25.7644V2.91439H60.5762V0.831055H81.7568V2.93105H72.3562V25.7811H69.8595V25.7644Z" fill="black"/>
</svg>
