<svg width="240" height="54" viewBox="0 0 240 54" fill="none" xmlns="http://www.w3.org/2000/svg">
<path d="M30.814 7.85059C30.814 7.85059 30.6666 9.0568 30.4983 9.97733C30.3194 10.9613 30.1931 11.5433 30.0773 12.1041C29.9405 12.7072 29.4038 14.9926 29.2144 15.6804C28.9513 16.6432 28.7408 17.3522 28.5093 18.0717C28.2463 18.8864 28.0989 19.2884 27.8043 20.0291C27.5412 20.6957 27.4359 20.9814 27.1623 21.6268C26.8887 22.2722 26.5836 23.0341 26.3836 23.489C26.1837 23.944 25.6259 25.1079 25.2471 25.8168C25.0471 26.1871 24.4999 27.2875 24.1316 27.9753C23.7633 28.6525 23.2055 29.6259 22.8793 30.2079C21.8796 31.9643 21.4902 32.6097 21.4902 32.6097L20.7326 33.9429C20.7326 33.9429 20.501 34.3344 20.259 34.7788C20.0906 35.0962 19.796 35.6887 19.6697 35.985C19.4803 36.4294 19.2382 37.096 19.0909 37.6356C18.9015 38.3551 18.8594 39.0534 18.891 39.5825C18.933 40.1538 19.0699 40.6405 19.2488 41.0003C19.4276 41.36 19.8381 41.8785 20.1643 42.2171C20.4905 42.5451 20.9641 42.8942 21.4692 43.1588C21.9743 43.4233 22.6689 43.6349 23.2897 43.7513C23.9106 43.8677 24.7209 43.9312 25.3734 43.9312H25.426C26.11 43.9312 27.1308 43.8359 27.9516 43.5926C28.7514 43.3598 29.2144 43.127 29.709 42.8096C30.2036 42.4922 30.6456 42.0689 30.9402 41.5822C31.2454 41.0955 31.4348 40.4712 31.4454 39.9316C31.4454 39.8681 31.4454 39.8152 31.4454 39.7517L31.8663 38.0482L33.2554 37.8155C33.4553 38.154 33.6342 38.5879 33.7395 38.937C33.8657 39.3603 34.0025 40.1432 33.9394 40.8522C33.8868 41.5822 33.7605 42.0901 33.3606 42.8942C33.0344 43.5608 32.6135 43.9735 32.1715 44.3861C31.8137 44.7141 31.3191 45.021 30.8034 45.2961C30.2773 45.5712 29.4985 45.9204 28.7408 46.1002C27.7411 46.333 26.7098 46.46 26.0258 46.4706C25.0787 46.4811 24.1 46.3859 23.2792 46.2589C22.6057 46.1531 21.4166 45.8463 20.7536 45.5712C20.1748 45.3278 19.2698 44.7988 18.7752 44.3967C18.3227 44.037 17.7755 43.455 17.4072 42.8519C17.102 42.344 16.8494 41.6775 16.7442 41.159C16.6179 40.5241 16.5863 39.9105 16.6705 39.1486C16.7652 38.3445 17.0388 37.4557 17.1967 37.0536C17.3651 36.6092 17.6702 35.9744 17.9965 35.329C18.3964 34.5248 18.8489 33.8265 18.8489 33.8265L19.6171 32.5674C19.6171 32.5674 20.1327 31.7738 20.6378 31.012C20.8273 30.7369 21.5218 29.6153 21.9954 28.8852C22.4058 28.2398 23.3213 26.7691 23.6791 26.166C24.0685 25.5206 24.521 24.7587 24.8998 24.0498C25.2892 23.3409 25.447 23.087 25.7627 22.431C26.0784 21.7855 26.1626 21.648 26.4362 21.0766C26.7625 20.3994 27.0045 19.8916 27.2465 19.3202C27.478 18.77 27.7517 18.0505 27.9305 17.5849C28.1621 16.9924 28.4041 16.2941 28.5093 15.9872C28.6777 15.4899 28.9092 14.781 28.9934 14.5377C29.0986 14.1991 29.3828 13.2891 29.5091 12.8553C29.6564 12.3474 29.9616 11.247 30.0878 10.7815C30.2246 10.2419 30.3404 9.80804 30.4562 9.31074C30.5719 8.92983 30.814 7.85059 30.814 7.85059Z" fill="#426E86"/>
<path d="M21.4778 32.6104C21.4778 32.6104 22.909 32.695 23.5404 32.7796C24.2771 32.8749 25.3084 33.0653 26.0134 33.2452C26.9605 33.4886 28.0444 33.8695 28.9495 34.261C29.7177 34.5995 30.3491 34.991 30.7384 35.2556C31.0647 35.4778 31.7171 35.9645 32.2222 36.4723C32.5485 36.8004 32.9062 37.2447 33.1588 37.6045C33.2009 37.668 33.2535 37.742 33.2956 37.8267L31.4961 39.763C31.4751 39.308 31.3277 38.8848 31.0436 38.4298C30.7384 37.9431 30.3806 37.5516 29.9702 37.1918C29.5809 36.8533 29.2652 36.6416 28.8127 36.3348C28.3601 36.028 27.7708 35.7317 27.2236 35.4672C26.6764 35.2027 25.8766 34.917 25.1926 34.7054C24.5612 34.5149 23.8246 34.335 23.2247 34.2292C22.8248 34.1551 22.2355 34.0599 21.7935 34.0176C21.3516 33.9753 20.7412 33.9435 20.7412 33.9435L21.4778 32.6104Z" fill="url(#paint0_linear_361_253)"/>
<path fill-rule="evenodd" clip-rule="evenodd" d="M18.8684 33.827L19.6366 32.5679C19.6366 32.5679 19.0894 32.5679 18.3212 32.6208C17.7319 32.6525 17.3215 32.6843 16.8269 32.7372C16.3113 32.7901 15.1537 32.9488 14.8275 32.9911C14.2908 33.0652 13.27 33.2239 12.5649 33.3614C11.5863 33.5519 10.7023 33.7529 9.8078 33.9963C9.03959 34.2079 8.26086 34.4407 7.29271 34.8004C6.73497 35.0015 5.851 35.34 5.36693 35.5411C4.92495 35.7315 4.03046 36.1759 3.68319 36.3664C3.32539 36.5568 2.65189 36.9589 2.23096 37.2658C1.73636 37.6149 1.126 38.1122 0.768208 38.4296C0.410412 38.7471 0 39.1809 0 39.1809C0 39.1809 0.484076 38.7894 0.68402 38.6413C0.915535 38.4614 1.14705 38.2921 1.41013 38.1016C1.76793 37.8371 2.25201 37.5409 2.63085 37.3292C2.98864 37.1282 3.62005 36.8002 4.17779 36.5463C4.725 36.3029 5.23012 36.0913 5.73525 35.922C6.5245 35.6469 7.21904 35.4141 7.81888 35.2448C8.38714 35.0861 9.25006 34.8851 9.79727 34.7581C10.3445 34.6311 11.5442 34.3983 12.0177 34.3243C12.6807 34.2185 13.8698 34.1021 13.8698 34.1021L16.0797 33.8799C16.0797 33.8799 16.206 33.8376 17.2584 33.8058C18.7422 33.7741 18.8684 33.827 18.8684 33.827Z" fill="url(#paint1_linear_361_253)"/>
<path d="M24.3625 0C24.3625 0 24.7308 0.814722 24.9939 1.56596C25.1517 2.02094 25.3306 2.71927 25.4885 3.77735C25.6568 4.87776 25.6568 5.85119 25.6674 6.62359C25.6779 7.35367 25.6463 8.65511 25.5411 9.76609C25.4464 10.8877 25.499 10.3904 25.3517 11.4908C25.2043 12.5912 25.299 12.0198 25.0781 13.2049C24.8571 14.3899 25.0254 13.7127 24.7308 15.0036C24.4467 16.2839 24.5308 15.8924 24.2467 16.9928C24.1099 17.5324 24.0047 17.871 23.7942 18.527C23.5732 19.2148 23.3838 19.7967 23.1523 20.4421C22.9418 21.0452 22.5524 22.0504 22.2788 22.6535C21.9737 23.3307 21.5212 24.3041 21.0581 25.2987C20.795 25.8701 20.4899 26.4944 20.0794 27.2562C19.4586 28.4201 18.8587 29.4993 18.4062 30.2611C17.9116 31.0864 17.2276 32.1657 16.8382 32.7476C16.5962 33.118 16.3963 33.4142 16.049 33.9433C15.1966 35.2341 15.144 35.3505 14.4179 36.4509C13.8917 37.2445 13.0288 38.5353 12.5131 39.4453C11.8291 40.6409 11.6081 41.2017 11.5029 41.4874C11.3977 41.7731 11.1661 42.683 11.1346 43.0428C11.0925 43.4025 11.0083 44.0903 11.1556 44.8203C11.345 45.7409 11.5345 46.1641 11.7765 46.5768C11.8502 46.7037 12.1974 47.4232 13.3024 48.3861C14.3758 49.3278 15.5018 49.9626 16.291 50.3541C17.1645 50.7773 18.0274 51.1054 18.543 51.2641C19.1744 51.4545 20.4372 51.719 21.4159 51.8354C22.4472 51.9624 24.4467 52.0788 25.0254 52.0788C25.6042 52.0788 27.6352 52.0576 29.3506 51.7825C30.9817 51.518 32.4339 51.1477 33.4021 50.862C34.507 50.5234 35.391 50.1848 36.1592 49.878C36.4012 49.7827 37.3799 49.3595 38.0744 49.0421C38.9374 48.64 39.4635 48.3543 39.9476 48.0581C40.8 47.5396 41.5682 46.9682 41.5682 46.9682C41.5682 46.9682 41.1052 47.4973 40.0949 48.3014C39.6319 48.6718 38.8321 49.1691 38.106 49.5817C37.5272 49.9097 37.0747 50.1531 36.296 50.5128C35.4226 50.9149 34.8227 51.1794 33.8756 51.518C33.0232 51.8248 32.7812 51.9095 31.4552 52.2904C30.7396 52.502 30.0661 52.6713 29.1506 52.8406C28.0351 53.0416 26.6671 53.1898 25.2675 53.2427C23.4469 53.3062 22.2999 53.2638 20.6793 53.0416C18.9219 52.8089 18.1958 52.5972 17.2276 52.3221C16.2384 52.0365 15.5333 51.8143 14.1337 51.1265C13.4813 50.7985 12.1869 49.9415 11.6818 49.5394C11.2082 49.1585 10.7136 48.6612 10.3558 48.2379C9.73496 47.4973 9.2614 46.6931 8.9878 45.8044C8.71419 44.9261 8.68262 44.2913 8.68262 43.7623C8.68262 43.2332 8.71419 42.7148 8.85099 42.1434C8.9878 41.5826 9.32454 40.7361 9.82967 39.8368C10.1664 39.2231 10.5347 38.6835 10.9241 38.1438C11.4292 37.4455 12.1132 36.525 12.692 35.7526C13.2708 34.9802 14.4389 33.5412 14.8283 33.0227C15.2282 32.4937 16.1437 31.2769 16.9119 30.1447C17.8274 28.801 18.3326 28.0074 18.9955 26.8859C19.6585 25.7643 19.9532 25.2353 20.4478 24.2618C20.9003 23.373 21.237 22.6535 21.6053 21.8176C21.9737 20.9712 22.2262 20.4316 22.9523 18.4953C23.4995 17.0351 23.8573 15.6702 24.0994 14.665C24.3414 13.6598 24.4677 13.152 24.6782 12.041C24.8886 10.9406 25.0254 9.96713 25.1201 9.13124C25.2254 8.28478 25.2464 7.51238 25.278 6.60243C25.3096 5.69248 25.278 4.84601 25.2254 4.1371C25.1728 3.42818 25.036 2.33836 24.8255 1.52364C24.5519 0.497299 24.3625 0 24.3625 0Z" fill="#2E4760"/>
<path d="M53.2593 52.0207V1.23877H53.8786V52.0207H53.2593Z" fill="#7696A7"/>
<path d="M66.7871 20.8505V8.52002H68.2299V20.8505H66.7871Z" fill="#2E4760"/>
<path d="M76.5061 15.5921C76.5061 14.7257 76.466 14.1011 76.3658 13.7385C76.2856 13.3758 76.1053 13.134 75.8448 13.0131C75.5843 12.8923 75.1635 12.8318 74.5623 12.8318C73.9011 12.8318 73.4201 12.9527 73.1196 13.1945C72.819 13.4362 72.6186 13.7788 72.5585 14.222C72.4783 14.6653 72.4383 15.2898 72.4383 16.0958V20.8506H71.1157V11.7035H72.318L72.3982 12.993H72.4783C72.6587 12.5296 72.9593 12.1669 73.36 11.9252C73.7608 11.6834 74.3619 11.5625 75.1434 11.5625C75.9249 11.5625 76.486 11.6834 76.8868 11.9252C77.2675 12.1669 77.528 12.5296 77.6683 13.0131C77.8086 13.4967 77.8687 14.1817 77.8687 15.0682V20.8305H76.5061V15.5921Z" fill="#2E4760"/>
<path d="M80.4937 9.1046V7.55322H81.9364V9.1046H80.4937ZM80.5337 20.8508V11.7037H81.8963V20.8508H80.5337Z" fill="#2E4760"/>
<path d="M89.7513 20.7701C89.4707 20.8305 89.1101 20.8909 88.7093 20.9312C88.3085 20.9715 87.9077 21.0118 87.5671 21.0118C86.5652 21.0118 85.8438 20.8506 85.3629 20.5283C84.902 20.2059 84.5814 19.7425 84.4611 19.0978C84.3209 18.4732 84.2607 17.5263 84.2607 16.2771C84.2607 15.0279 84.3409 14.081 84.5012 13.4362C84.6615 12.7915 84.9821 12.308 85.443 12.0058C85.9039 11.7035 86.6052 11.5625 87.507 11.5625C87.8677 11.5625 88.2684 11.5826 88.6692 11.6431C89.07 11.6834 89.4106 11.7438 89.6912 11.8043V12.9326C89.09 12.8117 88.4889 12.7512 87.8276 12.7512C87.1663 12.7512 86.6854 12.8318 86.3848 13.0131C86.0842 13.1945 85.8839 13.5168 85.7837 14.0004C85.6835 14.4839 85.6234 15.2294 85.6234 16.2771C85.6234 17.3449 85.6835 18.1105 85.7837 18.5739C85.8839 19.0373 86.1043 19.3597 86.4049 19.541C86.7054 19.7224 87.2064 19.803 87.8677 19.803C88.5089 19.803 89.1301 19.7425 89.7513 19.6216V20.7701Z" fill="#2E4760"/>
<path d="M91.7749 9.1046V7.55322H93.2177V9.1046H91.7749ZM91.815 20.8508V11.7037H93.1776V20.8508H91.815Z" fill="#2E4760"/>
<path d="M98.0274 20.9918C97.0856 20.9918 96.3843 20.7903 95.9835 20.4075C95.5627 20.0247 95.3623 19.3195 95.3623 18.3121C95.3623 17.6271 95.4425 17.0831 95.5827 16.6802C95.723 16.2974 95.9835 16.0153 96.3442 15.834C96.7049 15.6526 97.2058 15.572 97.8671 15.572C98.2078 15.572 99.1696 15.5922 100.773 15.6526V15.0482C100.773 14.3027 100.713 13.7789 100.592 13.4565C100.472 13.1342 100.252 12.9327 99.9511 12.8521C99.6305 12.7715 99.1095 12.7111 98.348 12.7111C98.0074 12.7111 97.5866 12.7312 97.0856 12.7715C96.5846 12.8118 96.1638 12.8521 95.8633 12.8924V11.7843C96.7049 11.6231 97.6667 11.5425 98.7688 11.5425C99.7107 11.5425 100.432 11.6432 100.893 11.8648C101.354 12.0865 101.674 12.429 101.855 12.9125C102.035 13.3961 102.115 14.1214 102.115 15.0683V20.8306H100.913L100.833 19.5613H100.753C100.532 20.1254 100.192 20.5083 99.7107 20.6896C99.2297 20.9112 98.6686 20.9918 98.0274 20.9918ZM98.5083 19.8232C99.0093 19.8232 99.4101 19.7628 99.7307 19.662C100.051 19.5613 100.272 19.3598 100.432 19.0375C100.652 18.5741 100.773 17.9495 100.773 17.1637V16.6399H98.2278C97.787 16.6399 97.4663 16.6802 97.266 16.7608C97.0656 16.8414 96.9053 16.9824 96.8251 17.204C96.745 17.4256 96.7049 17.7682 96.7049 18.2316C96.7049 18.695 96.745 19.0173 96.8452 19.2389C96.9453 19.4606 97.1057 19.6016 97.3662 19.6822C97.5866 19.7628 97.9873 19.8232 98.5083 19.8232Z" fill="#2E4760"/>
<path d="M105.341 20.8509V12.8925H103.758V11.7038H105.341V9.06445H106.703V11.7038H108.567V12.8925H106.703V20.8509H105.341Z" fill="#2E4760"/>
<path d="M110.311 9.1046V7.55322H111.753V9.1046H110.311ZM110.351 20.8508V11.7037H111.713V20.8508H110.351Z" fill="#2E4760"/>
<path d="M116.383 20.8502L113.457 11.7031H114.88L117.184 19.2988H117.304L119.609 11.7031H120.991L118.086 20.8502H116.383Z" fill="#2E4760"/>
<path d="M124.738 20.9918C123.797 20.9918 123.095 20.7903 122.694 20.4075C122.274 20.0247 122.073 19.3195 122.073 18.3121C122.073 17.6271 122.153 17.0831 122.294 16.6802C122.434 16.2974 122.694 16.0153 123.055 15.834C123.416 15.6526 123.917 15.572 124.578 15.572C124.919 15.572 125.881 15.5922 127.484 15.6526V15.0482C127.484 14.3027 127.424 13.7789 127.303 13.4565C127.183 13.1342 126.963 12.9327 126.662 12.8521C126.341 12.7715 125.82 12.7111 125.059 12.7111C124.718 12.7111 124.298 12.7312 123.797 12.7715C123.296 12.8118 122.875 12.8521 122.574 12.8924V11.7843C123.416 11.6231 124.378 11.5425 125.48 11.5425C126.422 11.5425 127.143 11.6432 127.604 11.8648C128.065 12.0663 128.385 12.429 128.566 12.9125C128.746 13.3961 128.826 14.1214 128.826 15.0683V20.8306H127.624L127.544 19.5613H127.464C127.243 20.1254 126.903 20.5083 126.422 20.6896C125.941 20.9112 125.38 20.9918 124.738 20.9918ZM125.219 19.8232C125.72 19.8232 126.121 19.7628 126.442 19.662C126.762 19.5613 126.983 19.3598 127.143 19.0375C127.363 18.5741 127.484 17.9495 127.484 17.1637V16.6399H124.939C124.498 16.6399 124.177 16.6802 123.977 16.7608C123.777 16.8414 123.616 16.9824 123.536 17.204C123.456 17.4256 123.416 17.7682 123.416 18.2316C123.416 18.695 123.456 19.0173 123.556 19.2389C123.656 19.4606 123.817 19.6016 124.077 19.6822C124.318 19.7628 124.698 19.8232 125.219 19.8232Z" fill="#2E4760"/>
<path d="M135.278 11.7037H136.481L136.561 12.9931H136.641C136.841 12.429 137.162 12.0462 137.623 11.8447C138.084 11.6432 138.625 11.5425 139.266 11.5425C140.068 11.5425 140.689 11.6835 141.11 11.9454C141.53 12.2074 141.811 12.6708 141.991 13.3356C142.172 14.0005 142.252 14.9676 142.252 16.2369C142.252 17.5062 142.172 18.4935 142.011 19.1584C141.851 19.8232 141.55 20.2866 141.13 20.5687C140.709 20.8508 140.108 20.9717 139.286 20.9717C138.605 20.9717 138.064 20.8709 137.643 20.6694C137.222 20.468 136.921 20.1456 136.741 19.6822H136.641V24.3363H135.278V11.7037ZM138.745 19.7628C139.406 19.7628 139.887 19.6822 140.168 19.521C140.448 19.3598 140.629 19.0576 140.729 18.5942C140.829 18.1308 140.889 17.3652 140.889 16.2772C140.889 15.1892 140.829 14.4236 140.729 13.9602C140.629 13.4968 140.428 13.1946 140.168 13.0334C139.887 12.8722 139.406 12.7916 138.745 12.7916C138.204 12.7916 137.783 12.8722 137.483 13.0536C137.182 13.2349 136.962 13.517 136.841 13.8998C136.741 14.1818 136.681 14.4841 136.661 14.8467C136.641 15.2094 136.621 15.6728 136.621 16.2571C136.621 17.3249 136.681 18.0704 136.801 18.4733C136.942 18.9367 137.162 19.2591 137.463 19.4404C137.783 19.662 138.204 19.7628 138.745 19.7628Z" fill="#2E4760"/>
<path d="M144.596 11.7035H145.798L145.879 13.4362H145.979C146.159 12.7109 146.46 12.2274 146.921 11.9655C147.362 11.7035 147.943 11.5625 148.684 11.5625V12.9527C147.963 12.9527 147.422 13.0736 147.021 13.3355C146.62 13.5974 146.34 13.9802 146.199 14.5041C146.039 15.0279 145.959 15.713 145.959 16.5793V20.8708H144.596V11.7035Z" fill="#2E4760"/>
<path d="M153.553 20.9917C152.431 20.9917 151.629 20.8708 151.149 20.6089C150.668 20.3469 150.347 19.9238 150.207 19.2993C150.066 18.6747 150.006 17.6673 150.006 16.2771C150.006 14.8869 150.066 13.8795 150.207 13.2549C150.347 12.6303 150.648 12.2072 151.149 11.9453C151.629 11.6834 152.431 11.5625 153.553 11.5625C154.675 11.5625 155.477 11.6834 155.958 11.9453C156.439 12.2072 156.759 12.6303 156.9 13.2549C157.04 13.8795 157.1 14.8869 157.1 16.2771C157.1 17.6673 157.04 18.6747 156.9 19.2993C156.759 19.9238 156.459 20.3469 155.958 20.6089C155.477 20.8708 154.675 20.9917 153.553 20.9917ZM153.553 19.8231C154.295 19.8231 154.796 19.7425 155.096 19.5813C155.397 19.4201 155.577 19.1179 155.637 18.6948C155.717 18.2516 155.737 17.4658 155.737 16.2972C155.737 15.1287 155.697 14.3429 155.637 13.8996C155.557 13.4564 155.377 13.1743 155.096 13.0131C154.796 12.852 154.295 12.7714 153.553 12.7714C152.812 12.7714 152.311 12.852 152.01 13.0131C151.73 13.1743 151.549 13.4765 151.469 13.8996C151.389 14.3429 151.369 15.1287 151.369 16.2972C151.369 17.4658 151.409 18.2717 151.469 18.6948C151.549 19.1179 151.71 19.4201 152.01 19.5813C152.291 19.7425 152.812 19.8231 153.553 19.8231Z" fill="#2E4760"/>
<path d="M165.357 20.749L162.432 11.6221H163.874L166.159 19.1976H166.299L168.583 11.6221H169.986L167.081 20.749H165.357Z" fill="#2E4760"/>
<path d="M171.188 20.749V19.6812L175.817 12.7906H171.368V11.6221H177.5V12.6899L172.891 19.5805H177.54V20.749H171.188Z" fill="#2E4760"/>
<path d="M182.309 20.8904C181.508 20.8904 180.887 20.7493 180.466 20.4874C180.045 20.2255 179.745 19.7621 179.584 19.0972C179.404 18.4323 179.324 17.4653 179.324 16.1959C179.324 14.9266 179.404 13.9394 179.564 13.2745C179.725 12.6096 180.025 12.1462 180.446 11.8642C180.867 11.5821 181.468 11.4612 182.289 11.4612C182.951 11.4612 183.492 11.5619 183.913 11.7634C184.333 11.9649 184.654 12.2873 184.854 12.7305H184.934V7.43164H186.297V20.7493H185.095L185.035 19.48H184.934C184.734 20.024 184.414 20.4068 183.973 20.6083C183.492 20.7896 182.951 20.8904 182.309 20.8904ZM182.83 19.6614C183.351 19.6614 183.772 19.5808 184.073 19.4196C184.373 19.2584 184.594 18.9965 184.714 18.6338C184.814 18.3316 184.874 17.9891 184.894 17.6264C184.914 17.2436 184.934 16.7198 184.934 16.0549C184.934 15.5311 184.914 15.1281 184.894 14.7856C184.874 14.4632 184.814 14.161 184.754 13.9192C184.634 13.4961 184.414 13.1738 184.113 12.9924C183.812 12.8111 183.371 12.7104 182.79 12.7104C182.129 12.7104 181.668 12.791 181.388 12.9521C181.107 13.1133 180.927 13.4155 180.827 13.8789C180.726 14.3423 180.686 15.108 180.686 16.1959C180.686 17.2839 180.726 18.0697 180.827 18.5331C180.927 18.9965 181.107 19.2987 181.388 19.4599C181.688 19.5808 182.169 19.6614 182.83 19.6614Z" fill="#2E4760"/>
<path d="M195.475 16.6592H190.025C190.025 17.586 190.085 18.2509 190.185 18.674C190.285 19.0769 190.506 19.359 190.866 19.5202C191.227 19.6814 191.788 19.762 192.61 19.762C193.371 19.762 194.233 19.7015 195.195 19.5605V20.6686C194.874 20.7492 194.433 20.8097 193.912 20.85C193.371 20.8903 192.85 20.9305 192.329 20.9305C191.227 20.9305 190.425 20.7895 189.925 20.5074C189.404 20.2254 189.083 19.762 188.923 19.1374C188.762 18.5128 188.682 17.5457 188.682 16.2361C188.682 14.9466 188.762 13.9796 188.903 13.355C189.043 12.7304 189.363 12.267 189.864 11.9648C190.365 11.6626 191.167 11.5014 192.269 11.5014C193.291 11.5014 194.032 11.6424 194.473 11.9446C194.934 12.2468 195.215 12.6901 195.335 13.3147C195.455 13.9393 195.515 14.9064 195.515 16.2361V16.6592H195.475ZM192.189 12.6296C191.508 12.6296 191.027 12.7102 190.746 12.8513C190.446 12.9923 190.265 13.2744 190.165 13.6572C190.065 14.04 190.025 14.7049 190.025 15.6115H194.173V15.4302C194.173 14.584 194.113 13.9594 194.012 13.5766C193.892 13.1938 193.712 12.9319 193.451 12.811C193.171 12.6901 192.75 12.6296 192.189 12.6296ZM191.307 9.92984L189.704 7.5524V7.45166H190.646L192.029 9.16422L193.411 7.45166H194.373V7.5524L192.75 9.92984H191.307Z" fill="#2E4760"/>
<path d="M197.819 20.7493V7.43164H199.182V20.7493H197.819Z" fill="#2E4760"/>
<path d="M204.032 20.8903C203.09 20.8903 202.389 20.6888 201.988 20.306C201.567 19.9232 201.367 19.218 201.367 18.2106C201.367 17.5256 201.447 16.9816 201.587 16.5786C201.727 16.1958 201.988 15.9137 202.349 15.7324C202.709 15.5511 203.21 15.4705 203.872 15.4705C204.212 15.4705 205.174 15.4906 206.777 15.5511V14.9466C206.777 14.2012 206.717 13.6773 206.597 13.355C206.477 13.0326 206.256 12.8311 205.956 12.7505C205.635 12.6699 205.114 12.6095 204.352 12.6095C204.012 12.6095 203.591 12.6296 203.09 12.6699C202.589 12.7102 202.168 12.7505 201.868 12.7908V11.6827C202.709 11.5215 203.671 11.4409 204.773 11.4409C205.715 11.4409 206.436 11.5417 206.897 11.7633C207.358 11.9648 207.679 12.3274 207.859 12.811C208.04 13.2945 208.12 14.0198 208.12 14.9668V20.7291H206.917L206.837 19.4598H206.757C206.537 20.0239 206.196 20.4067 205.715 20.588C205.234 20.8097 204.673 20.8903 204.032 20.8903ZM204.513 19.7217C205.014 19.7217 205.414 19.6612 205.735 19.5605C206.056 19.4598 206.276 19.2583 206.436 18.9359C206.657 18.4725 206.777 17.8479 206.777 17.0622V16.5383H204.232C203.791 16.5383 203.471 16.5786 203.27 16.6592C203.07 16.7398 202.91 16.8808 202.83 17.1025C202.749 17.3241 202.709 17.6666 202.709 18.13C202.709 18.5934 202.749 18.9158 202.85 19.1374C202.95 19.359 203.11 19.5001 203.371 19.5806C203.591 19.6814 203.992 19.7217 204.513 19.7217ZM204.252 9.97014V9.88955L205.655 7.45166H207.118V7.53225L205.274 9.97014H204.252Z" fill="#2E4760"/>
<path d="M212.608 20.749L209.682 11.6221H211.105L213.409 19.1976H213.53L215.834 11.6221H217.217L214.311 20.749H212.608Z" fill="#2E4760"/>
<path d="M220.963 20.8903C220.022 20.8903 219.32 20.6888 218.92 20.306C218.499 19.9232 218.298 19.218 218.298 18.2106C218.298 17.5256 218.378 16.9816 218.519 16.5786C218.659 16.1958 218.92 15.9137 219.28 15.7324C219.641 15.5511 220.142 15.4705 220.803 15.4705C221.144 15.4705 222.106 15.4906 223.709 15.5511V14.9466C223.709 14.2012 223.649 13.6773 223.528 13.355C223.408 13.0326 223.188 12.8311 222.887 12.7505C222.567 12.6699 222.046 12.6095 221.284 12.6095C220.943 12.6095 220.523 12.6296 220.022 12.6699C219.521 12.7102 219.1 12.7505 218.799 12.7908V11.6827C219.641 11.5215 220.603 11.4409 221.705 11.4409C222.647 11.4409 223.368 11.5417 223.829 11.7633C224.29 11.9648 224.61 12.3274 224.791 12.811C224.971 13.2945 225.051 14.0198 225.051 14.9668V20.7291H223.849L223.769 19.4598H223.689C223.468 20.0239 223.128 20.4067 222.647 20.588C222.166 20.8097 221.605 20.8903 220.963 20.8903ZM221.444 19.7217C221.945 19.7217 222.346 19.6612 222.667 19.5605C222.987 19.4598 223.208 19.2583 223.368 18.9359C223.588 18.4725 223.709 17.8479 223.709 17.0622V16.5383H221.164C220.723 16.5383 220.402 16.5786 220.202 16.6592C220.002 16.7398 219.841 16.8808 219.761 17.1025C219.681 17.3241 219.641 17.6666 219.641 18.13C219.641 18.5934 219.681 18.9158 219.781 19.1374C219.881 19.359 220.042 19.5001 220.302 19.5806C220.523 19.6814 220.923 19.7217 221.444 19.7217ZM221.184 9.97014V9.88955L222.587 7.45166H224.049V7.53225L222.206 9.97014H221.184Z" fill="#2E4760"/>
<path d="M233.107 15.491C233.107 14.6246 233.067 14.0001 232.966 13.6374C232.886 13.2747 232.706 13.033 232.445 12.9121C232.185 12.7912 231.764 12.7307 231.163 12.7307C230.502 12.7307 230.021 12.8516 229.72 13.0934C229.42 13.3352 229.219 13.6777 229.159 14.1209C229.079 14.5642 229.039 15.1888 229.039 15.9947V20.7496H227.676V11.6025H228.879L228.959 12.8919H229.039C229.219 12.4285 229.52 12.0659 229.921 11.8241C230.321 11.5823 230.923 11.4614 231.704 11.4614C232.486 11.4614 233.047 11.5823 233.447 11.8241C233.828 12.0659 234.089 12.4285 234.229 12.9121C234.369 13.3956 234.429 14.0806 234.429 14.9671V20.7294H233.067V15.491H233.107Z" fill="#2E4760"/>
<path d="M237.134 20.7492V11.6021H238.497V20.7492H237.134ZM237.134 9.97014V9.88955L238.537 7.45166H240V7.53225L238.156 9.97014H237.134Z" fill="#2E4760"/>
<path d="M68.5706 42.4956L65.645 33.3687H67.0878L69.3722 40.9442H69.5124L71.7968 33.3687H73.1995L70.2939 42.4956H68.5706Z" fill="#2E4760"/>
<path d="M78.73 33.3691H79.9323L80.0124 35.1018H80.1126C80.293 34.3765 80.5936 33.8929 81.0544 33.631C81.4953 33.3691 82.0764 33.228 82.8178 33.228V34.6182C82.0964 34.6182 81.5554 34.7391 81.1546 35.001C80.7539 35.263 80.4733 35.6458 80.3331 36.1696C80.1727 36.6935 80.0926 37.3785 80.0926 38.2448V42.5363H78.73V33.3691Z" fill="#2E4760"/>
<path d="M87.6269 46.1425C86.7252 46.1425 85.8235 46.1022 84.9218 46.0015V44.8732C85.9036 44.9336 86.7052 44.9538 87.3464 44.9538C88.1479 44.9538 88.7291 44.853 89.0897 44.6516C89.4504 44.4501 89.6909 44.1479 89.7911 43.7248C89.8913 43.3017 89.9514 42.6368 89.9514 41.7503V41.2869H89.8712C89.7109 41.6898 89.4504 42.0122 89.0497 42.254C88.6489 42.4957 88.0678 42.5965 87.2863 42.5965C86.5048 42.5965 85.9237 42.4756 85.5229 42.2338C85.1422 41.992 84.8817 41.6092 84.7414 41.1055C84.6011 40.6018 84.541 39.8967 84.541 38.9497V33.3486H85.9036V38.6072C85.9036 39.4736 85.9437 40.078 86.0439 40.4608C86.1441 40.8235 86.3244 41.0854 86.5649 41.1861C86.8254 41.307 87.2462 41.3675 87.8474 41.3675C88.5086 41.3675 88.9695 41.2466 89.2701 40.9847C89.5707 40.7429 89.751 40.3802 89.8312 39.9571C89.9113 39.5139 89.9514 38.8893 89.9514 38.0632V33.3486H91.314V41.307C91.314 42.5763 91.2339 43.5434 91.0535 44.2083C90.8732 44.8732 90.5325 45.3567 90.0115 45.6791C89.4905 45.9813 88.709 46.1425 87.6269 46.1425Z" fill="#2E4760"/>
<path d="M94.6607 42.4955V34.5371H93.0776V33.3685H94.6607V30.709H96.0033V33.3685H97.8869V34.5371H96.0033V42.4955H94.6607Z" fill="#2E4760"/>
<path d="M109.67 37.2366C109.67 36.3702 109.63 35.7457 109.549 35.383C109.469 35.0203 109.329 34.7786 109.089 34.6577C108.868 34.5368 108.487 34.4763 107.946 34.4763C107.345 34.4763 106.904 34.5972 106.624 34.8189C106.343 35.0606 106.183 35.383 106.103 35.8061C106.023 36.2292 106.003 36.8739 106.003 37.7403V42.4952H104.64V37.2164C104.64 36.3501 104.6 35.7255 104.52 35.3628C104.44 35.0002 104.299 34.7584 104.059 34.6375C103.838 34.5166 103.458 34.4562 102.917 34.4562C102.316 34.4562 101.895 34.5771 101.614 34.8189C101.334 35.0606 101.153 35.4031 101.093 35.8464C101.013 36.2896 100.993 36.9142 100.993 37.7403V42.4952H99.6304V33.3481H100.833L100.913 34.6375H100.993C101.153 34.1741 101.434 33.8316 101.815 33.5898C102.195 33.3481 102.756 33.207 103.478 33.207C104.199 33.207 104.74 33.3078 105.101 33.5294C105.462 33.751 105.702 34.1137 105.822 34.6375H105.922C106.083 34.1741 106.363 33.8316 106.764 33.5898C107.165 33.3481 107.726 33.207 108.447 33.207C109.169 33.207 109.69 33.3279 110.05 33.5697C110.411 33.8115 110.652 34.1741 110.772 34.6577C110.912 35.1412 110.972 35.8263 110.972 36.6926V42.475H109.61V37.2366H109.67Z" fill="#2E4760"/>
<path d="M113.658 30.7496V29.1982H115.1V30.7496H113.658ZM113.698 42.4958V33.3487H115.06V42.4958H113.698Z" fill="#2E4760"/>
<path d="M193.421 30.6647V29.1133H194.864V30.6647H193.421ZM193.461 42.4108V33.2637H194.824V42.4108H193.461Z" fill="#2E4760"/>
<path d="M122.915 42.4146C122.635 42.475 122.274 42.5355 121.873 42.5758C121.473 42.6161 121.072 42.6564 120.731 42.6564C119.729 42.6564 119.008 42.4952 118.527 42.1728C118.066 41.8504 117.745 41.387 117.625 40.7423C117.485 40.1177 117.425 39.1708 117.425 37.9216C117.425 36.6725 117.505 35.7255 117.665 35.0808C117.826 34.4361 118.146 33.9525 118.607 33.6503C119.068 33.3481 119.769 33.207 120.671 33.207C121.032 33.207 121.432 33.2272 121.833 33.2876C122.234 33.3279 122.575 33.3884 122.855 33.4488V34.5771C122.254 34.4562 121.653 34.3958 120.992 34.3958C120.33 34.3958 119.849 34.4763 119.549 34.6577C119.248 34.839 119.048 35.1614 118.948 35.6449C118.848 36.1285 118.787 36.8739 118.787 37.9216C118.787 38.9895 118.848 39.7551 118.948 40.2185C119.048 40.6819 119.268 41.0042 119.569 41.1856C119.869 41.3669 120.37 41.4475 121.032 41.4475C121.673 41.4475 122.294 41.387 122.915 41.2662V42.4146Z" fill="#2E4760"/>
<path d="M130.108 42.4959L127.383 38.4865H126.321V42.4959H124.979V29.1782H126.321V37.2776H127.383L130.108 33.369H131.591L128.485 37.7813L131.651 42.4959H130.108Z" fill="#2E4760"/>
<path d="M156.09 37.1521C156.09 36.2858 156.05 35.6612 155.97 35.2985C155.89 34.9359 155.749 34.6941 155.509 34.5732C155.289 34.4523 154.908 34.3919 154.367 34.3919C153.766 34.3919 153.325 34.5128 153.044 34.7344C152.764 34.9762 152.603 35.2985 152.523 35.7216C152.443 36.1447 152.423 36.7895 152.423 37.6558V42.4107H151.06V37.132C151.06 36.2656 151.02 35.641 150.94 35.2784C150.86 34.9157 150.72 34.6739 150.479 34.5531C150.259 34.4322 149.878 34.3717 149.337 34.3717C148.736 34.3717 148.315 34.4926 148.035 34.7344C147.754 34.9762 147.574 35.3187 147.514 35.7619C147.433 36.2052 147.413 36.8298 147.413 37.6558V42.4107H146.051V33.2636H147.253L147.333 34.5531H147.413C147.574 34.0897 147.854 33.7471 148.235 33.5054C148.616 33.2636 149.177 33.1226 149.898 33.1226C150.62 33.1226 151.161 33.2233 151.521 33.4449C151.882 33.6666 152.122 34.0292 152.243 34.5531H152.343C152.503 34.0897 152.784 33.7471 153.184 33.5054C153.585 33.2636 154.146 33.1226 154.868 33.1226C155.589 33.1226 156.11 33.2434 156.471 33.4852C156.831 33.727 157.072 34.0897 157.192 34.5732C157.332 35.0568 157.393 35.7418 157.393 36.6081V42.3906H156.03V37.1521H156.09Z" fill="#2E4760"/>
<path d="M162.262 42.5719C161.32 42.5719 160.619 42.3704 160.218 41.9876C159.797 41.6048 159.597 40.8996 159.597 39.8922C159.597 39.2072 159.677 38.6632 159.817 38.2603C159.957 37.8774 160.218 37.5954 160.579 37.414C160.939 37.2327 161.44 37.1521 162.101 37.1521C162.442 37.1521 163.404 37.1723 165.007 37.2327V36.6283C165.007 35.8828 164.947 35.359 164.827 35.0366C164.706 34.7142 164.486 34.5128 164.185 34.4322C163.865 34.3516 163.344 34.2911 162.582 34.2911C162.242 34.2911 161.821 34.3113 161.32 34.3516C160.819 34.3919 160.398 34.4322 160.098 34.4725V33.3643C160.939 33.2032 161.901 33.1226 163.003 33.1226C163.945 33.1226 164.666 33.2233 165.127 33.4449C165.588 33.6464 165.909 34.0091 166.089 34.4926C166.269 34.9762 166.35 35.7015 166.35 36.6484V42.4107H165.147L165.067 41.1414H164.987C164.767 41.7055 164.426 42.0883 163.945 42.2697C163.464 42.4711 162.903 42.5719 162.262 42.5719ZM162.743 41.3832C163.244 41.3832 163.644 41.3227 163.965 41.222C164.286 41.1212 164.506 40.9198 164.666 40.5974C164.887 40.134 165.007 39.5094 165.007 38.7237V38.1998H162.462C162.021 38.1998 161.701 38.2401 161.5 38.3207C161.3 38.4013 161.14 38.5423 161.059 38.7639C160.979 38.9856 160.939 39.3281 160.939 39.7915C160.939 40.2549 160.979 40.5773 161.08 40.7989C161.18 41.0205 161.34 41.1615 161.601 41.2421C161.841 41.3429 162.222 41.3832 162.743 41.3832Z" fill="#2E4760"/>
<path d="M171.659 42.5718C171.218 42.5718 170.717 42.5516 170.176 42.4912C169.635 42.4509 169.154 42.3904 168.774 42.33V41.2017C169.715 41.3226 170.637 41.383 171.579 41.383C172.1 41.383 172.481 41.3427 172.741 41.242C172.982 41.1413 173.162 41.0002 173.242 40.7987C173.322 40.5973 173.362 40.2951 173.362 39.9122C173.362 39.4891 173.342 39.1869 173.282 39.0257C173.222 38.8444 173.142 38.7235 173.002 38.6631C172.861 38.6026 172.641 38.5623 172.34 38.522L170.277 38.2601C169.595 38.1795 169.134 37.9579 168.914 37.6154C168.673 37.2527 168.553 36.6684 168.553 35.8222C168.553 35.0768 168.673 34.5126 168.934 34.1298C169.174 33.747 169.535 33.4851 169.976 33.3441C170.437 33.203 171.018 33.1426 171.759 33.1426C172.16 33.1426 172.601 33.1627 173.082 33.2232C173.563 33.2635 173.964 33.3239 174.284 33.4045V34.5328C173.583 34.3917 172.741 34.3313 171.759 34.3313C171.298 34.3313 170.938 34.3514 170.697 34.4119C170.457 34.4723 170.257 34.5932 170.116 34.8148C169.976 35.0163 169.916 35.3185 169.916 35.7416C169.916 36.1245 169.936 36.4065 169.996 36.5677C170.056 36.749 170.136 36.8699 170.277 36.9304C170.417 36.9908 170.617 37.0513 170.918 37.0916L172.962 37.3333C173.423 37.3736 173.783 37.4744 174.024 37.6154C174.264 37.7564 174.445 37.9982 174.565 38.3407C174.685 38.6832 174.745 39.1869 174.745 39.8719C174.745 40.5973 174.645 41.1413 174.425 41.5241C174.204 41.9069 173.883 42.1889 173.443 42.33C172.942 42.4912 172.381 42.5718 171.659 42.5718Z" fill="#2E4760"/>
<path d="M179.014 42.572C178.072 42.572 177.371 42.3705 176.97 41.9877C176.549 41.6049 176.349 40.8997 176.349 39.8924C176.349 39.2073 176.429 38.6633 176.569 38.2604C176.709 37.8776 176.97 37.5955 177.331 37.4142C177.691 37.2329 178.192 37.1523 178.853 37.1523C179.194 37.1523 180.156 37.1724 181.759 37.2328V36.6284C181.759 35.8829 181.699 35.3591 181.579 35.0367C181.458 34.7144 181.238 34.5129 180.937 34.4323C180.617 34.3517 180.096 34.2913 179.334 34.2913C178.994 34.2913 178.573 34.3114 178.072 34.3517C177.571 34.392 177.15 34.4323 176.85 34.4726V33.3645C177.691 33.2033 178.653 33.1227 179.755 33.1227C180.697 33.1227 181.418 33.2234 181.879 33.4451C182.34 33.6465 182.661 34.0092 182.841 34.4927C183.021 34.9763 183.102 35.7016 183.102 36.6486V42.4108H181.899L181.819 41.1415H181.739C181.519 41.7057 181.178 42.0885 180.697 42.2698C180.216 42.4713 179.655 42.572 179.014 42.572ZM179.495 41.3833C179.996 41.3833 180.396 41.3229 180.717 41.2221C181.038 41.1214 181.258 40.9199 181.418 40.5975C181.639 40.1341 181.759 39.5096 181.759 38.7238V38.1999H179.214C178.773 38.1999 178.453 38.2402 178.252 38.3208C178.052 38.4014 177.892 38.5425 177.811 38.7641C177.731 38.9857 177.691 39.3282 177.691 39.7916C177.691 40.255 177.731 40.5774 177.831 40.799C177.932 41.0206 178.092 41.1617 178.352 41.2423C178.593 41.343 178.974 41.3833 179.495 41.3833ZM179.254 31.6318V31.5512L180.657 29.1133H182.12V29.1939L180.276 31.6318H179.254Z" fill="#2E4760"/>
<path d="M185.226 42.4108V41.343L189.834 34.4525H185.406V33.2637H191.538V34.3316L186.929 41.2221H191.578V42.4108H185.226ZM187.75 31.5915L186.147 29.214V29.1133H187.089L188.472 30.8258L189.854 29.1133H190.816V29.214L189.193 31.5915H187.75Z" fill="#2E4760"/>
<path d="M196.647 43.882C197.048 43.882 197.309 43.8014 197.429 43.6603C197.549 43.5193 197.609 43.1969 197.609 42.7134V42.4112H196.988V40.7188H198.571V42.1694C198.571 42.8544 198.531 43.3581 198.431 43.6805C198.331 44.0028 198.15 44.2245 197.89 44.3655C197.629 44.5065 197.209 44.567 196.647 44.567V43.882Z" fill="#2E4760"/>
<path d="M204.202 42.4111V41.3433L208.831 34.4729H204.382V33.2842H210.514V34.352L205.905 41.2426H210.554V42.4111H204.202Z" fill="#2E4760"/>
<path d="M212.398 42.4105V40.7383H213.981V42.4105H212.398Z" fill="#2E4760"/>
<path d="M219.011 42.5718C218.57 42.5718 218.069 42.5516 217.528 42.4912C216.987 42.4509 216.506 42.3904 216.125 42.33V41.2017C217.067 41.3226 217.989 41.383 218.931 41.383C219.452 41.383 219.832 41.3427 220.093 41.242C220.333 41.1413 220.514 41.0002 220.594 40.7987C220.674 40.5973 220.714 40.2951 220.714 39.9122C220.714 39.4891 220.694 39.1869 220.634 39.0257C220.574 38.8444 220.494 38.7235 220.353 38.6631C220.213 38.6026 219.993 38.5623 219.692 38.522L217.628 38.2601C216.947 38.1795 216.486 37.9579 216.265 37.6154C216.025 37.2527 215.905 36.6684 215.905 35.8222C215.905 35.0768 216.025 34.5126 216.286 34.1298C216.526 33.747 216.887 33.4851 217.328 33.3441C217.788 33.203 218.37 33.1426 219.111 33.1426C219.512 33.1426 219.953 33.1627 220.433 33.2232C220.914 33.2635 221.315 33.3239 221.636 33.4045V34.5328C220.934 34.3917 220.093 34.3313 219.111 34.3313C218.65 34.3313 218.289 34.3514 218.049 34.4119C217.808 34.4723 217.608 34.5932 217.468 34.8148C217.328 35.0163 217.267 35.3185 217.267 35.7416C217.267 36.1245 217.287 36.4065 217.348 36.5677C217.408 36.749 217.488 36.8699 217.628 36.9304C217.768 36.9908 217.969 37.0513 218.269 37.0916L220.313 37.3333C220.774 37.3736 221.135 37.4744 221.375 37.6154C221.616 37.7564 221.796 37.9982 221.916 38.3407C222.037 38.6832 222.097 39.1869 222.097 39.8719C222.097 40.5973 221.996 41.1413 221.776 41.5241C221.556 41.9069 221.235 42.1889 220.794 42.33C220.313 42.4912 219.732 42.5718 219.011 42.5718Z" fill="#2E4760"/>
<path d="M223.96 42.4105V40.7383H225.523V42.4105H223.96Z" fill="#2E4760"/>
<path d="M135.64 31.7167V31.6361L137.042 29.1982H138.505V29.2788L136.662 31.7167H135.64Z" fill="#2E4760"/>
<path d="M139.908 38.4054H134.437C134.437 39.3322 134.497 39.9971 134.598 40.4202C134.698 40.8231 134.918 41.1052 135.279 41.2664C135.64 41.4276 136.201 41.5082 137.022 41.5082C137.784 41.5082 138.645 41.4477 139.607 41.3067V42.4148C139.287 42.4954 138.846 42.5558 138.325 42.5961C137.784 42.6364 137.263 42.6767 136.742 42.6767C135.64 42.6767 134.838 42.5357 134.337 42.2536C133.816 41.9716 133.495 41.5082 133.335 40.8836C133.175 40.259 133.095 39.2919 133.095 37.9823C133.095 36.6928 133.175 35.7257 133.315 35.1012C133.455 34.4766 133.776 34.0132 134.277 33.711C134.778 33.4087 135.58 33.2476 136.682 33.2476C137.704 33.2476 138.445 33.3886 138.886 33.6908C139.347 33.993 139.627 34.4363 139.747 35.0609C139.868 35.6854 139.928 36.6525 139.928 37.9823V38.4054H139.908ZM136.622 34.396C135.94 34.396 135.459 34.4766 135.179 34.6176C134.878 34.7586 134.698 35.0407 134.598 35.4235C134.497 35.8063 134.457 36.4712 134.457 37.3779H138.605V37.1965C138.605 36.3503 138.545 35.7257 138.445 35.3429C138.325 34.9601 138.144 34.6982 137.884 34.5773C137.583 34.4564 137.183 34.396 136.622 34.396Z" fill="#2E4760"/>
<defs>
<linearGradient id="paint0_linear_361_253" x1="39.6795" y1="7.97894" x2="9.07535" y2="1.36027" gradientUnits="userSpaceOnUse">
<stop stop-color="#426E86"/>
<stop offset="1" stop-color="white"/>
</linearGradient>
<linearGradient id="paint1_linear_361_253" x1="9.17225" y1="-4.66805" x2="39.4542" y2="-7.63379" gradientUnits="userSpaceOnUse">
<stop stop-color="#426E86"/>
<stop offset="1" stop-color="#FEFEFE"/>
</linearGradient>
</defs>
</svg>
