<svg width="56" height="56" viewBox="0 0 56 56" fill="none" xmlns="http://www.w3.org/2000/svg">
<path d="M27.9998 37.3332L37.3332 27.9998L34.0665 24.7332L30.3332 28.4665V18.6665H25.6665V28.4665L21.9332 24.7332L18.6665 27.9998L27.9998 37.3332ZM27.9998 51.3332C24.7721 51.3332 21.7387 50.7203 18.8998 49.4945C16.0609 48.2703 13.5915 46.6082 11.4915 44.5082C9.3915 42.4082 7.72939 39.9387 6.50517 37.0998C5.27939 34.2609 4.6665 31.2276 4.6665 27.9998C4.6665 24.7721 5.27939 21.7387 6.50517 18.8998C7.72939 16.0609 9.3915 13.5915 11.4915 11.4915C13.5915 9.3915 16.0609 7.72862 18.8998 6.50284C21.7387 5.27861 24.7721 4.6665 27.9998 4.6665C31.2276 4.6665 34.2609 5.27861 37.0998 6.50284C39.9387 7.72862 42.4082 9.3915 44.5082 11.4915C46.6082 13.5915 48.2703 16.0609 49.4945 18.8998C50.7203 21.7387 51.3332 24.7721 51.3332 27.9998C51.3332 31.2276 50.7203 34.2609 49.4945 37.0998C48.2703 39.9387 46.6082 42.4082 44.5082 44.5082C42.4082 46.6082 39.9387 48.2703 37.0998 49.4945C34.2609 50.7203 31.2276 51.3332 27.9998 51.3332Z" fill="#CDA793"/>
</svg>
