<svg width="17" height="16" viewBox="0 0 17 16" fill="none" xmlns="http://www.w3.org/2000/svg">
<path d="M11.1176 11.305L12.4741 9.94843C12.6569 9.76799 12.888 9.64447 13.1396 9.59286C13.3911 9.54126 13.6523 9.5638 13.8913 9.65774L15.5446 10.3179C15.7861 10.4159 15.9932 10.5832 16.1398 10.7988C16.2863 11.0143 16.3658 11.2684 16.3682 11.5291V14.5571C16.3668 14.7344 16.3295 14.9096 16.2586 15.0722C16.1877 15.2347 16.0847 15.3812 15.9557 15.5028C15.8267 15.6245 15.6744 15.7188 15.508 15.78C15.3416 15.8413 15.1645 15.8682 14.9874 15.8592C3.40208 15.1385 1.06442 5.32762 0.622323 1.57283C0.601801 1.38844 0.620551 1.2018 0.677342 1.02518C0.734132 0.848561 0.827675 0.685968 0.951816 0.548096C1.07596 0.410225 1.22788 0.300201 1.3976 0.225262C1.56732 0.150323 1.75098 0.112167 1.9365 0.113306H4.8616C5.12263 0.114079 5.37745 0.192924 5.5933 0.339701C5.80915 0.486478 5.97615 0.694475 6.07282 0.936938L6.73294 2.59026C6.82999 2.8283 6.85475 3.08967 6.80413 3.34171C6.75351 3.59374 6.62975 3.82528 6.4483 4.00739L5.09173 5.36396C5.09173 5.36396 5.87297 10.6509 11.1176 11.305Z" fill="#345159"/>
</svg>
