<svg width="213" height="45" viewBox="0 0 213 45" fill="none" xmlns="http://www.w3.org/2000/svg">
<g clip-path="url(#clip0_196_313)">
<path d="M17.8449 33.9579H15.4039V33.942C14.7457 32.3068 14.4268 30.5549 14.4666 28.7927C14.5097 28.1729 14.4159 27.5512 14.1921 26.9717C13.9683 26.3921 13.6198 25.8689 13.1713 25.4389C12.7229 25.009 12.1854 24.6829 11.5969 24.4837C11.0085 24.2845 10.3834 24.217 9.766 24.2862H2.72779V33.9452H0.5V11.0786H9.05629C11.3247 10.9265 13.5752 11.569 15.4214 12.8958C16.1098 13.4816 16.6543 14.2177 17.013 15.0474C17.3717 15.877 17.5349 16.778 17.4901 17.6808C17.5216 18.4269 17.3983 19.1715 17.128 19.8676C16.8577 20.5638 16.4462 21.1965 15.9195 21.7258C14.9158 22.6526 13.6355 23.224 12.2754 23.3521C13.5117 23.533 14.6455 24.1411 15.4803 25.0707C16.2221 26.0244 16.6452 27.1873 16.6896 28.3948L16.704 28.554C16.9808 31.7858 17.0938 33.1225 17.8354 33.95L17.8449 33.9579ZM2.72779 12.9881V22.3878H9.11517V22.4037C10.7165 22.5273 12.3134 22.1153 13.6551 21.2325C14.1693 20.8026 14.573 20.2558 14.8327 19.6379C15.0924 19.02 15.2004 18.3489 15.1477 17.6808C15.1839 17.0416 15.0737 16.4026 14.8255 15.8125C14.5773 15.2223 14.1977 14.6966 13.7155 14.2754C12.3782 13.325 10.7516 12.8698 9.11517 12.9881H2.72779Z" fill="#2E4760"/>
<path d="M29.2371 33.9437H27.1207L18.1411 11.0786H20.2575L29.2371 33.9437Z" fill="#2E4760"/>
<path d="M39.0025 11.0786H41.1189L32.1393 33.9596H30.0229L39.0025 11.0786Z" fill="#2E4760"/>
<path d="M45.2148 11.0786V32.0325H58.2156V33.958H42.9473V11.0786H45.2148Z" fill="#2E4760"/>
<path d="M63.5067 33.9437V12.9881H55.1318V11.0786H74.2399V13.0041H65.7584V33.9596H63.5067V33.9437Z" fill="#2E4760"/>
<path d="M88.0836 18.8506C87.8144 18.6659 87.4952 18.5676 87.1686 18.5689C86.8862 18.5793 86.6179 18.6949 86.4165 18.8931C86.2151 19.0913 86.0951 19.3577 86.0802 19.6399L85.894 20.6583H87.6985L87.167 21.5685H85.7349L84.5669 27.5151C84.4268 28.5098 84.0136 29.4462 83.3734 30.2203L82.4712 29.6172C82.9383 28.9752 83.2474 28.2321 83.3734 27.4483L84.5144 21.5685H83.8381L84.01 20.6551H84.6735L84.8454 19.7576C84.8855 19.3971 85.0023 19.0493 85.1878 18.7375C85.3733 18.4257 85.6233 18.1572 85.9211 17.9499C86.311 17.7232 86.7577 17.6127 87.2084 17.6317C87.6848 17.6064 88.1575 17.7281 88.5626 17.9802L88.0836 18.8506Z" fill="#2E4760"/>
<path d="M89.9392 27.5405C89.6221 27.5647 89.3037 27.5179 89.007 27.4035C88.7103 27.2891 88.4429 27.11 88.2241 26.8793C88.0054 26.6485 87.8409 26.3719 87.7425 26.0695C87.6442 25.7671 87.6145 25.4466 87.6557 25.1313C87.6557 22.4818 89.2645 20.4832 91.3984 20.4832C91.7153 20.4572 92.034 20.5024 92.3313 20.6152C92.6286 20.7281 92.897 20.9059 93.1169 21.1357C93.3367 21.3654 93.5025 21.6414 93.6022 21.9434C93.7018 22.2453 93.7329 22.5658 93.693 22.8813C93.693 25.5753 92.1112 27.5405 89.9392 27.5405ZM91.1851 21.4618C89.7546 21.4618 88.9828 23.4 88.9828 25.2236C88.9828 26.1243 89.3695 26.5635 90.1635 26.5635C91.5957 26.5635 92.3531 24.6635 92.3531 22.7874C92.3531 21.691 91.7182 21.4618 91.1851 21.4618Z" fill="#2E4760"/>
<path d="M98.6581 21.8357C98.5154 21.7771 98.3619 21.7494 98.2077 21.7545C97.6635 21.7545 97.0541 22.2096 96.443 23.1198L95.5535 27.3797H94.3457L95.3005 22.8525C95.3919 22.4478 95.4452 22.0355 95.4596 21.6209C95.4642 21.3988 95.4331 21.1774 95.3673 20.9653L96.5082 20.4561C96.61 20.721 96.6597 21.003 96.6546 21.2867C96.6504 21.5004 96.6281 21.7133 96.5878 21.9232C96.8075 21.5482 97.1065 21.2258 97.4638 20.9784C97.8211 20.731 98.2282 20.5647 98.6565 20.4911C98.8372 20.4843 99.0175 20.5119 99.188 20.5722L98.6581 21.8357Z" fill="#2E4760"/>
</g>
<g clip-path="url(#clip1_196_313)">
<path d="M124.751 9.854C124.751 9.854 124.651 10.6615 124.536 11.2778C124.415 11.9366 124.329 12.3262 124.25 12.7016C124.157 13.1054 123.792 14.6354 123.663 15.0959C123.484 15.7405 123.341 16.2151 123.183 16.6967C123.004 17.2422 122.904 17.5114 122.703 18.0072C122.524 18.4535 122.453 18.6447 122.266 19.0768C122.08 19.5089 121.873 20.0189 121.737 20.3235C121.6 20.6281 121.221 21.4073 120.963 21.8819C120.827 22.1298 120.455 22.8665 120.204 23.327C119.954 23.7803 119.574 24.432 119.352 24.8216C118.672 25.9975 118.407 26.4296 118.407 26.4296L117.891 27.3221C117.891 27.3221 117.734 27.5842 117.569 27.8817C117.454 28.0942 117.254 28.4909 117.168 28.6892C117.039 28.9868 116.874 29.433 116.774 29.7943C116.645 30.276 116.617 30.7435 116.638 31.0977C116.667 31.4802 116.76 31.806 116.882 32.0469C117.003 32.2877 117.283 32.6348 117.505 32.8615C117.727 33.0811 118.049 33.3148 118.392 33.4919C118.736 33.669 119.209 33.8107 119.631 33.8886C120.054 33.9665 120.605 34.009 121.049 34.009H121.085C121.55 34.009 122.245 33.9453 122.803 33.7823C123.348 33.6265 123.663 33.4707 123.999 33.2582C124.336 33.0456 124.637 32.7623 124.837 32.4365C125.045 32.1106 125.174 31.6927 125.181 31.3314C125.181 31.2889 125.181 31.2535 125.181 31.211L125.467 30.0705L126.413 29.9147C126.549 30.1414 126.67 30.4318 126.742 30.6656C126.828 30.9489 126.921 31.4731 126.878 31.9477C126.842 32.4365 126.756 32.7765 126.484 33.3148C126.262 33.7611 125.976 34.0373 125.675 34.3136C125.431 34.5332 125.095 34.7386 124.744 34.9228C124.386 35.107 123.856 35.3407 123.341 35.4611C122.66 35.617 121.959 35.702 121.493 35.7091C120.849 35.7162 120.183 35.6524 119.624 35.5674C119.166 35.4966 118.357 35.2911 117.906 35.107C117.512 34.944 116.896 34.5899 116.559 34.3207C116.251 34.0798 115.879 33.6902 115.628 33.2865C115.421 32.9465 115.249 32.5002 115.177 32.1531C115.091 31.7281 115.07 31.3173 115.127 30.8072C115.192 30.2689 115.378 29.6739 115.485 29.4047C115.6 29.1072 115.807 28.6822 116.029 28.2501C116.302 27.7117 116.609 27.2442 116.609 27.2442L117.132 26.4012C117.132 26.4012 117.483 25.87 117.827 25.36C117.956 25.1758 118.428 24.4249 118.751 23.9362C119.03 23.5041 119.653 22.5194 119.896 22.1157C120.161 21.6836 120.469 21.1736 120.727 20.699C120.992 20.2244 121.099 20.0544 121.314 19.6152C121.529 19.1831 121.586 19.091 121.772 18.7085C121.994 18.2551 122.159 17.9151 122.324 17.5326C122.481 17.1643 122.667 16.6826 122.789 16.3709C122.947 15.9742 123.111 15.5067 123.183 15.3013C123.298 14.9683 123.455 14.4937 123.512 14.3308C123.584 14.1042 123.777 13.495 123.863 13.2045C123.964 12.8645 124.171 12.1278 124.257 11.8162C124.35 11.4549 124.429 11.1645 124.508 10.8315C124.587 10.5765 124.751 9.854 124.751 9.854Z" fill="#2E4760"/>
<path d="M118.4 26.4297C118.4 26.4297 119.374 26.4864 119.803 26.543C120.304 26.6068 121.006 26.7343 121.486 26.8547C122.13 27.0176 122.868 27.2726 123.484 27.5347C124.007 27.7614 124.436 28.0235 124.701 28.2006C124.923 28.3493 125.367 28.6752 125.711 29.0152C125.933 29.2348 126.176 29.5323 126.348 29.7731C126.377 29.8156 126.413 29.8652 126.441 29.9219L125.217 31.2182C125.202 30.9136 125.102 30.6303 124.909 30.3257C124.701 29.9998 124.458 29.7377 124.178 29.4969C123.913 29.2702 123.699 29.1285 123.391 28.9231C123.083 28.7177 122.682 28.5193 122.309 28.3423C121.937 28.1652 121.393 27.9739 120.927 27.8322C120.498 27.7047 119.997 27.5843 119.588 27.5135C119.316 27.4639 118.915 27.4001 118.615 27.3718C118.314 27.3435 117.898 27.3222 117.898 27.3222L118.4 26.4297Z" fill="#2E4760"/>
<path fill-rule="evenodd" clip-rule="evenodd" d="M116.624 27.2443L117.147 26.4014C117.147 26.4014 116.774 26.4014 116.252 26.4368C115.851 26.458 115.571 26.4793 115.235 26.5147C114.884 26.5501 114.096 26.6564 113.874 26.6847C113.509 26.7343 112.814 26.8405 112.335 26.9326C111.669 27.0601 111.067 27.1947 110.458 27.3577C109.936 27.4993 109.406 27.6552 108.747 27.896C108.368 28.0306 107.766 28.2573 107.437 28.3919C107.136 28.5194 106.527 28.8169 106.291 28.9444C106.047 29.0719 105.589 29.3411 105.303 29.5465C104.966 29.7802 104.551 30.1132 104.307 30.3257C104.064 30.5382 103.785 30.8286 103.785 30.8286C103.785 30.8286 104.114 30.5665 104.25 30.4673C104.408 30.3469 104.565 30.2336 104.744 30.1061C104.988 29.929 105.317 29.7306 105.575 29.589C105.818 29.4544 106.248 29.2348 106.627 29.0648C107 28.9019 107.344 28.7602 107.687 28.6469C108.224 28.4627 108.697 28.3068 109.105 28.1935C109.492 28.0873 110.079 27.9527 110.451 27.8677C110.824 27.7827 111.64 27.6268 111.962 27.5772C112.413 27.5064 113.223 27.4285 113.223 27.4285L114.726 27.2797C114.726 27.2797 114.812 27.2514 115.528 27.2301C116.538 27.2089 116.624 27.2443 116.624 27.2443Z" fill="#2E4760"/>
<path d="M120.362 4.59814C120.362 4.59814 120.613 5.14358 120.792 5.64651C120.899 5.95111 121.021 6.41862 121.128 7.12698C121.243 7.86367 121.243 8.51536 121.25 9.03247C121.257 9.52123 121.235 10.3925 121.164 11.1363C121.099 11.8871 121.135 11.5542 121.035 12.2909C120.935 13.0276 120.999 12.6451 120.849 13.4385C120.698 14.2318 120.813 13.7785 120.613 14.6427C120.419 15.4998 120.476 15.2377 120.283 15.9744C120.19 16.3356 120.118 16.5623 119.975 17.0015C119.825 17.4619 119.696 17.8515 119.538 18.2836C119.395 18.6874 119.13 19.3603 118.944 19.7641C118.736 20.2174 118.428 20.8691 118.113 21.535C117.934 21.9175 117.727 22.3354 117.447 22.8454C117.025 23.6246 116.617 24.3472 116.309 24.8572C115.972 25.4097 115.507 26.1322 115.242 26.5218C115.077 26.7697 114.941 26.9681 114.705 27.3223C114.125 28.1865 114.089 28.2644 113.595 29.0011C113.237 29.5323 112.65 30.3965 112.299 31.0057C111.833 31.8062 111.683 32.1816 111.611 32.3729C111.54 32.5641 111.382 33.1733 111.361 33.4141C111.332 33.655 111.275 34.1154 111.375 34.6042C111.504 35.2205 111.633 35.5038 111.798 35.7801C111.848 35.8651 112.084 36.3468 112.836 36.9914C113.566 37.6218 114.333 38.0468 114.87 38.3089C115.464 38.5922 116.051 38.8118 116.402 38.9181C116.832 39.0456 117.691 39.2227 118.357 39.3006C119.059 39.3856 120.419 39.4635 120.813 39.4635C121.207 39.4635 122.589 39.4494 123.756 39.2652C124.866 39.0881 125.854 38.8402 126.513 38.6489C127.265 38.4222 127.866 38.1956 128.389 37.9901C128.554 37.9264 129.22 37.643 129.692 37.4305C130.28 37.1614 130.638 36.9701 130.967 36.7718C131.547 36.4247 132.07 36.0422 132.07 36.0422C132.07 36.0422 131.755 36.3963 131.067 36.9347C130.752 37.1826 130.208 37.5155 129.714 37.7918C129.32 38.0114 129.012 38.1743 128.482 38.4152C127.888 38.6843 127.48 38.8614 126.835 39.0881C126.255 39.2935 126.09 39.3502 125.188 39.6052C124.701 39.7469 124.243 39.8602 123.62 39.9735C122.861 40.1081 121.93 40.2073 120.978 40.2427C119.739 40.2852 118.958 40.2569 117.856 40.1081C116.66 39.9523 116.166 39.8106 115.507 39.6264C114.834 39.4352 114.354 39.2864 113.402 38.826C112.958 38.6064 112.077 38.0326 111.733 37.7635C111.411 37.5085 111.074 37.1755 110.831 36.8922C110.408 36.3963 110.086 35.858 109.9 35.263C109.714 34.675 109.692 34.25 109.692 33.8958C109.692 33.5417 109.714 33.1946 109.807 32.812C109.9 32.4366 110.129 31.8699 110.473 31.2678C110.702 30.857 110.953 30.4957 111.218 30.1345C111.561 29.6669 112.027 29.0507 112.421 28.5336C112.814 28.0165 113.609 27.0531 113.874 26.706C114.146 26.3518 114.769 25.5372 115.292 24.7793C115.915 23.8796 116.259 23.3484 116.71 22.5975C117.161 21.8467 117.362 21.4925 117.698 20.8408C118.006 20.2458 118.235 19.7641 118.486 19.2045C118.736 18.6378 118.908 18.2765 119.402 16.9802C119.775 16.0027 120.018 15.0889 120.183 14.416C120.348 13.743 120.433 13.403 120.577 12.6593C120.72 11.9226 120.813 11.2709 120.877 10.7113C120.949 10.1446 120.963 9.62749 120.985 9.0183C121.006 8.40911 120.985 7.84242 120.949 7.36782C120.913 6.89322 120.82 6.16362 120.677 5.61818C120.491 4.93107 120.362 4.59814 120.362 4.59814Z" fill="#2E4760"/>
<path d="M143.971 12.8576V8.52246H144.486V12.8576H143.971Z" fill="#2E4760"/>
<path d="M147.444 11.009C147.444 10.7044 147.429 10.4848 147.394 10.3573C147.365 10.2298 147.301 10.1448 147.208 10.1023C147.114 10.0598 146.964 10.0386 146.749 10.0386C146.513 10.0386 146.341 10.0811 146.234 10.1661C146.126 10.2511 146.055 10.3715 146.033 10.5273C146.005 10.6832 145.99 10.9027 145.99 11.1861V12.8578H145.518V9.64187H145.947L145.976 10.0952H146.005C146.069 9.9323 146.176 9.80479 146.32 9.71979C146.463 9.63479 146.678 9.59229 146.957 9.59229C147.236 9.59229 147.437 9.63479 147.58 9.71979C147.716 9.80479 147.809 9.9323 147.859 10.1023C147.909 10.2723 147.931 10.5132 147.931 10.8248V12.8507H147.444V11.009Z" fill="#2E4760"/>
<path d="M148.869 8.72805V8.18262H149.384V8.72805H148.869ZM148.883 12.8578V9.64183H149.37V12.8578H148.883Z" fill="#2E4760"/>
<path d="M152.177 12.8295C152.077 12.8507 151.948 12.872 151.805 12.8861C151.661 12.9003 151.518 12.9145 151.396 12.9145C151.038 12.9145 150.781 12.8578 150.609 12.7445C150.444 12.6311 150.329 12.4682 150.286 12.2415C150.236 12.022 150.215 11.689 150.215 11.2498C150.215 10.8107 150.243 10.4777 150.301 10.2511C150.358 10.0244 150.473 9.85438 150.637 9.74812C150.802 9.64187 151.053 9.59229 151.375 9.59229C151.504 9.59229 151.647 9.59937 151.79 9.62062C151.933 9.63479 152.055 9.65604 152.155 9.67729V10.074C151.941 10.0315 151.726 10.0102 151.489 10.0102C151.253 10.0102 151.081 10.0386 150.974 10.1023C150.866 10.1661 150.795 10.2794 150.759 10.4494C150.723 10.6194 150.702 10.8815 150.702 11.2498C150.702 11.6253 150.723 11.8944 150.759 12.0574C150.795 12.2203 150.874 12.3336 150.981 12.3974C151.088 12.4611 151.267 12.4895 151.504 12.4895C151.733 12.4895 151.955 12.4682 152.177 12.4257V12.8295V12.8295Z" fill="#2E4760"/>
<path d="M152.9 8.72805V8.18262H153.416V8.72805H152.9ZM152.915 12.8578V9.64183H153.402V12.8578H152.915Z" fill="#2E4760"/>
<path d="M155.135 12.9072C154.798 12.9072 154.547 12.8363 154.404 12.7017C154.254 12.5671 154.182 12.3192 154.182 11.965C154.182 11.7242 154.211 11.5329 154.261 11.3913C154.311 11.2567 154.404 11.1575 154.533 11.0938C154.662 11.03 154.841 11.0017 155.077 11.0017C155.199 11.0017 155.543 11.0088 156.116 11.03V10.8175C156.116 10.5554 156.094 10.3712 156.051 10.2579C156.008 10.1446 155.929 10.0737 155.822 10.0454C155.707 10.0171 155.521 9.99581 155.249 9.99581C155.127 9.99581 154.977 10.0029 154.798 10.0171C154.619 10.0312 154.469 10.0454 154.361 10.0596V9.66996C154.662 9.6133 155.006 9.58496 155.399 9.58496C155.736 9.58496 155.994 9.62038 156.158 9.6983C156.323 9.77622 156.438 9.89664 156.502 10.0666C156.567 10.2367 156.595 10.4917 156.595 10.8246V12.8505H156.166L156.137 12.4042H156.108C156.03 12.6026 155.908 12.7372 155.736 12.8009C155.564 12.8788 155.364 12.9072 155.135 12.9072ZM155.306 12.4963C155.485 12.4963 155.629 12.4751 155.743 12.4396C155.858 12.4042 155.937 12.3334 155.994 12.2201C156.073 12.0571 156.116 11.8375 156.116 11.5613V11.3771H155.206C155.049 11.3771 154.934 11.3913 154.862 11.4196C154.791 11.4479 154.734 11.4975 154.705 11.5754C154.676 11.6534 154.662 11.7738 154.662 11.9367C154.662 12.0996 154.676 12.213 154.712 12.2909C154.748 12.3688 154.805 12.4184 154.898 12.4467C154.977 12.4751 155.12 12.4963 155.306 12.4963Z" fill="#2E4760"/>
<path d="M157.748 12.8578V10.0597H157.182V9.64182H157.748V8.71387H158.235V9.64182H158.901V10.0597H158.235V12.8578H157.748Z" fill="#2E4760"/>
<path d="M159.524 8.72805V8.18262H160.039V8.72805H159.524ZM159.538 12.8578V9.64183H160.025V12.8578H159.538Z" fill="#2E4760"/>
<path d="M161.693 12.8575L160.648 9.6416H161.156L161.98 12.3121H162.023L162.846 9.6416H163.34L162.302 12.8575H161.693Z" fill="#2E4760"/>
<path d="M164.679 12.9072C164.343 12.9072 164.092 12.8363 163.949 12.7017C163.799 12.5671 163.727 12.3192 163.727 11.965C163.727 11.7242 163.756 11.5329 163.806 11.3913C163.856 11.2567 163.949 11.1575 164.078 11.0938C164.207 11.03 164.386 11.0017 164.622 11.0017C164.744 11.0017 165.088 11.0088 165.66 11.03V10.8175C165.66 10.5554 165.639 10.3712 165.596 10.2579C165.553 10.1446 165.474 10.0737 165.367 10.0454C165.252 10.0171 165.066 9.99581 164.794 9.99581C164.672 9.99581 164.522 10.0029 164.343 10.0171C164.164 10.0312 164.013 10.0454 163.906 10.0596V9.66996C164.207 9.6133 164.551 9.58496 164.944 9.58496C165.281 9.58496 165.539 9.62038 165.703 9.6983C165.868 9.76913 165.983 9.89664 166.047 10.0666C166.112 10.2367 166.14 10.4917 166.14 10.8246V12.8505H165.711L165.682 12.4042H165.653C165.575 12.6026 165.453 12.7372 165.281 12.8009C165.109 12.8788 164.909 12.9072 164.679 12.9072ZM164.851 12.4963C165.03 12.4963 165.174 12.4751 165.288 12.4396C165.403 12.4042 165.481 12.3334 165.539 12.2201C165.617 12.0571 165.66 11.8375 165.66 11.5613V11.3771H164.751C164.593 11.3771 164.479 11.3913 164.407 11.4196C164.336 11.4479 164.278 11.4975 164.25 11.5754C164.221 11.6534 164.207 11.7738 164.207 11.9367C164.207 12.0996 164.221 12.213 164.257 12.2909C164.293 12.3688 164.35 12.4184 164.443 12.4467C164.529 12.4751 164.665 12.4963 164.851 12.4963Z" fill="#2E4760"/>
<path d="M168.446 9.64163H168.876L168.905 10.095H168.933C169.005 9.89664 169.119 9.76205 169.284 9.69121C169.449 9.62038 169.642 9.58496 169.871 9.58496C170.158 9.58496 170.38 9.63455 170.53 9.72663C170.68 9.81872 170.781 9.98164 170.845 10.2154C170.91 10.4492 170.938 10.7892 170.938 11.2354C170.938 11.6817 170.91 12.0288 170.852 12.2626C170.795 12.4963 170.688 12.6592 170.537 12.7584C170.387 12.8576 170.172 12.9001 169.878 12.9001C169.635 12.9001 169.442 12.8647 169.291 12.7938C169.141 12.723 169.033 12.6096 168.969 12.4467H168.933V14.083H168.446V9.64163ZM169.685 12.4751C169.921 12.4751 170.093 12.4467 170.194 12.3901C170.294 12.3334 170.358 12.2271 170.394 12.0642C170.43 11.9013 170.451 11.6321 170.451 11.2496C170.451 10.8671 170.43 10.5979 170.394 10.435C170.358 10.2721 170.287 10.1658 170.194 10.1091C170.093 10.0525 169.921 10.0241 169.685 10.0241C169.492 10.0241 169.341 10.0525 169.234 10.1162C169.127 10.18 169.048 10.2792 169.005 10.4137C168.969 10.5129 168.948 10.6192 168.94 10.7467C168.933 10.8742 168.926 11.0371 168.926 11.2425C168.926 11.6179 168.948 11.88 168.991 12.0217C169.041 12.1846 169.119 12.298 169.227 12.3617C169.341 12.4396 169.492 12.4751 169.685 12.4751Z" fill="#2E4760"/>
<path d="M171.776 9.64187H172.206L172.234 10.2511H172.27C172.334 9.99605 172.442 9.82604 172.607 9.73396C172.764 9.64187 172.972 9.59229 173.237 9.59229V10.0811C172.979 10.0811 172.786 10.1236 172.642 10.2156C172.499 10.3077 172.399 10.4423 172.349 10.6265C172.291 10.8107 172.263 11.0515 172.263 11.3561V12.8649H171.776V9.64187V9.64187Z" fill="#2E4760"/>
<path d="M174.977 12.9074C174.576 12.9074 174.289 12.8649 174.118 12.7728C173.946 12.6807 173.831 12.532 173.781 12.3124C173.731 12.0928 173.709 11.7386 173.709 11.2498C173.709 10.7611 173.731 10.4069 173.781 10.1873C173.831 9.96772 173.939 9.81896 174.118 9.72687C174.289 9.63479 174.576 9.59229 174.977 9.59229C175.378 9.59229 175.664 9.63479 175.836 9.72687C176.008 9.81896 176.123 9.96772 176.173 10.1873C176.223 10.4069 176.244 10.7611 176.244 11.2498C176.244 11.7386 176.223 12.0928 176.173 12.3124C176.123 12.532 176.015 12.6807 175.836 12.7728C175.664 12.8649 175.378 12.9074 174.977 12.9074ZM174.977 12.4966C175.242 12.4966 175.421 12.4682 175.528 12.4115C175.636 12.3549 175.7 12.2486 175.722 12.0999C175.75 11.944 175.757 11.6678 175.757 11.2569C175.757 10.8461 175.743 10.5698 175.722 10.414C175.693 10.2581 175.629 10.159 175.528 10.1023C175.421 10.0456 175.242 10.0173 174.977 10.0173C174.712 10.0173 174.533 10.0456 174.426 10.1023C174.325 10.159 174.261 10.2652 174.232 10.414C174.204 10.5698 174.196 10.8461 174.196 11.2569C174.196 11.6678 174.211 11.9511 174.232 12.0999C174.261 12.2486 174.318 12.3549 174.426 12.4115C174.526 12.4682 174.712 12.4966 174.977 12.4966Z" fill="#2E4760"/>
<path d="M144.608 20.7914L143.562 17.5825H144.078L144.894 20.2459H144.945L145.761 17.5825H146.262L145.224 20.7914H144.608Z" fill="#2E4760"/>
<path d="M146.692 20.7914V20.416L148.346 17.9934H146.756V17.5825H148.948V17.9579L147.301 20.3805H148.962V20.7914H146.692Z" fill="#2E4760"/>
<path d="M150.666 20.8407C150.38 20.8407 150.158 20.7911 150.007 20.699C149.857 20.607 149.749 20.444 149.692 20.2103C149.628 19.9765 149.599 19.6365 149.599 19.1902C149.599 18.744 149.628 18.3969 149.685 18.1631C149.742 17.9294 149.85 17.7664 150 17.6673C150.15 17.5681 150.365 17.5256 150.659 17.5256C150.895 17.5256 151.089 17.561 151.239 17.6319C151.389 17.7027 151.504 17.816 151.575 17.9719H151.604V16.1089H152.091V20.7911H151.661L151.64 20.3449H151.604C151.533 20.5361 151.418 20.6707 151.26 20.7415C151.089 20.8053 150.895 20.8407 150.666 20.8407ZM150.852 20.4086C151.038 20.4086 151.189 20.3803 151.296 20.3236C151.404 20.2669 151.482 20.1749 151.525 20.0474C151.561 19.9411 151.583 19.8207 151.59 19.6932C151.597 19.5586 151.604 19.3744 151.604 19.1407C151.604 18.9565 151.597 18.8148 151.59 18.6944C151.583 18.5811 151.561 18.4748 151.54 18.3898C151.497 18.241 151.418 18.1277 151.311 18.064C151.203 18.0002 151.046 17.9648 150.838 17.9648C150.602 17.9648 150.437 17.9931 150.337 18.0498C150.236 18.1065 150.172 18.2127 150.136 18.3756C150.1 18.5386 150.086 18.8077 150.086 19.1902C150.086 19.5728 150.1 19.849 150.136 20.0119C150.172 20.1749 150.236 20.2811 150.337 20.3378C150.444 20.3803 150.616 20.4086 150.852 20.4086Z" fill="#2E4760"/>
<path d="M155.371 19.3534H153.423C153.423 19.6793 153.445 19.913 153.48 20.0618C153.516 20.2034 153.595 20.3026 153.724 20.3593C153.853 20.4159 154.053 20.4443 154.347 20.4443C154.619 20.4443 154.927 20.423 155.271 20.3734V20.763C155.156 20.7914 154.998 20.8126 154.812 20.8268C154.619 20.841 154.433 20.8551 154.247 20.8551C153.853 20.8551 153.566 20.8055 153.387 20.7064C153.201 20.6072 153.087 20.4443 153.029 20.2247C152.972 20.0051 152.943 19.6651 152.943 19.2047C152.943 18.7513 152.972 18.4113 153.022 18.1917C153.072 17.9721 153.187 17.8092 153.366 17.7029C153.545 17.5967 153.831 17.54 154.225 17.54C154.59 17.54 154.855 17.5896 155.013 17.6958C155.178 17.8021 155.278 17.9579 155.321 18.1775C155.364 18.3971 155.385 18.7371 155.385 19.2047V19.3534H155.371ZM154.196 17.9367C153.953 17.9367 153.781 17.965 153.681 18.0146C153.574 18.0642 153.509 18.1634 153.473 18.298C153.437 18.4325 153.423 18.6663 153.423 18.9851H154.905V18.9213C154.905 18.6238 154.884 18.4042 154.848 18.2696C154.805 18.135 154.741 18.0429 154.648 18.0004C154.547 17.9579 154.397 17.9367 154.196 17.9367ZM153.881 16.9875L153.309 16.1516V16.1162H153.645L154.139 16.7183L154.633 16.1162H154.977V16.1516L154.397 16.9875H153.881Z" fill="#2E4760"/>
<path d="M156.208 20.7911V16.1089H156.695V20.7911H156.208Z" fill="#2E4760"/>
<path d="M158.428 20.841C158.092 20.841 157.841 20.7701 157.698 20.6355C157.548 20.5009 157.476 20.253 157.476 19.8988C157.476 19.658 157.505 19.4667 157.555 19.3251C157.605 19.1905 157.698 19.0913 157.827 19.0276C157.956 18.9638 158.135 18.9355 158.371 18.9355C158.493 18.9355 158.837 18.9426 159.409 18.9638V18.7513C159.409 18.4892 159.388 18.305 159.345 18.1917C159.302 18.0784 159.223 18.0075 159.116 17.9792C159.001 17.9509 158.815 17.9296 158.543 17.9296C158.421 17.9296 158.271 17.9367 158.092 17.9509C157.913 17.965 157.763 17.9792 157.655 17.9934V17.6038C157.956 17.5471 158.3 17.5188 158.693 17.5188C159.03 17.5188 159.288 17.5542 159.452 17.6321C159.617 17.7029 159.732 17.8304 159.796 18.0004C159.861 18.1704 159.889 18.4255 159.889 18.7584V20.7843H159.46L159.431 20.338H159.402C159.324 20.5364 159.202 20.671 159.03 20.7347C158.858 20.8126 158.658 20.841 158.428 20.841ZM158.6 20.4301C158.779 20.4301 158.923 20.4089 159.037 20.3734C159.152 20.338 159.23 20.2672 159.288 20.1539C159.367 19.9909 159.409 19.7713 159.409 19.4951V19.3109H158.5C158.343 19.3109 158.228 19.3251 158.156 19.3534C158.085 19.3817 158.027 19.4313 157.999 19.5092C157.97 19.5872 157.956 19.7076 157.956 19.8705C157.956 20.0334 157.97 20.1468 158.006 20.2247C158.042 20.3026 158.099 20.3522 158.192 20.3805C158.271 20.4159 158.414 20.4301 158.6 20.4301ZM158.507 17.0017V16.9733L159.008 16.1162H159.531V16.1445L158.872 17.0017H158.507Z" fill="#2E4760"/>
<path d="M161.493 20.7914L160.448 17.5825H160.956L161.78 20.2459H161.823L162.646 17.5825H163.14L162.102 20.7914H161.493Z" fill="#2E4760"/>
<path d="M164.479 20.841C164.143 20.841 163.892 20.7701 163.749 20.6355C163.598 20.5009 163.527 20.253 163.527 19.8988C163.527 19.658 163.555 19.4667 163.606 19.3251C163.656 19.1905 163.749 19.0913 163.878 19.0276C164.007 18.9638 164.186 18.9355 164.422 18.9355C164.544 18.9355 164.887 18.9426 165.46 18.9638V18.7513C165.46 18.4892 165.439 18.305 165.396 18.1917C165.353 18.0784 165.274 18.0075 165.167 17.9792C165.052 17.9509 164.866 17.9296 164.594 17.9296C164.472 17.9296 164.322 17.9367 164.143 17.9509C163.964 17.965 163.813 17.9792 163.706 17.9934V17.6038C164.007 17.5471 164.35 17.5188 164.744 17.5188C165.081 17.5188 165.339 17.5542 165.503 17.6321C165.668 17.7029 165.782 17.8304 165.847 18.0004C165.911 18.1704 165.94 18.4255 165.94 18.7584V20.7843H165.51L165.482 20.338H165.453C165.374 20.5364 165.253 20.671 165.081 20.7347C164.909 20.8126 164.708 20.841 164.479 20.841ZM164.651 20.4301C164.83 20.4301 164.973 20.4089 165.088 20.3734C165.202 20.338 165.281 20.2672 165.339 20.1539C165.417 19.9909 165.46 19.7713 165.46 19.4951V19.3109H164.551C164.393 19.3109 164.279 19.3251 164.207 19.3534C164.136 19.3817 164.078 19.4313 164.05 19.5092C164.021 19.5872 164.007 19.7076 164.007 19.8705C164.007 20.0334 164.021 20.1468 164.057 20.2247C164.093 20.3026 164.15 20.3522 164.243 20.3805C164.322 20.4159 164.465 20.4301 164.651 20.4301ZM164.558 17.0017V16.9733L165.059 16.1162H165.582V16.1445L164.923 17.0017H164.558Z" fill="#2E4760"/>
<path d="M168.818 18.9426C168.818 18.638 168.804 18.4184 168.768 18.2909C168.74 18.1634 168.675 18.0784 168.582 18.0359C168.489 17.9934 168.339 17.9721 168.124 17.9721C167.888 17.9721 167.716 18.0146 167.608 18.0996C167.501 18.1847 167.429 18.3051 167.408 18.4609C167.379 18.6168 167.365 18.8363 167.365 19.1197V20.7914H166.878V17.5755H167.308L167.336 18.0288H167.365C167.429 17.8659 167.537 17.7384 167.68 17.6534C167.823 17.5684 168.038 17.5259 168.317 17.5259C168.597 17.5259 168.797 17.5684 168.94 17.6534C169.076 17.7384 169.169 17.8659 169.219 18.0359C169.27 18.2059 169.291 18.4467 169.291 18.7584V20.7843H168.804V18.9426H168.818Z" fill="#2E4760"/>
<path d="M170.258 20.7914V17.5754H170.745V20.7914H170.258ZM170.258 17.0017V16.9733L170.759 16.1162H171.282V16.1445L170.623 17.0017H170.258Z" fill="#2E4760"/>
<path d="M144.608 28.725L143.562 25.5161H144.078L144.894 28.1795H144.945L145.761 25.5161H146.262L145.224 28.725H144.608Z" fill="#2E4760"/>
<path d="M148.239 25.5159H148.668L148.697 26.1251H148.733C148.797 25.8701 148.905 25.7001 149.069 25.608C149.227 25.5159 149.435 25.4663 149.7 25.4663V25.9551C149.442 25.9551 149.248 25.9976 149.105 26.0897C148.962 26.1817 148.862 26.3163 148.812 26.5005C148.754 26.6847 148.726 26.9255 148.726 27.2301V28.7389H148.239V25.5159Z" fill="#2E4760"/>
<path d="M151.418 30.0069C151.095 30.0069 150.773 29.9927 150.451 29.9573V29.5606C150.802 29.5818 151.088 29.5889 151.317 29.5889C151.604 29.5889 151.812 29.5535 151.94 29.4827C152.069 29.4118 152.155 29.3056 152.191 29.1568C152.227 29.0081 152.248 28.7743 152.248 28.4626V28.2997H152.22C152.162 28.4414 152.069 28.5547 151.926 28.6397C151.783 28.7247 151.575 28.7602 151.296 28.7602C151.017 28.7602 150.809 28.7177 150.666 28.6326C150.53 28.5476 150.437 28.4131 150.387 28.236C150.336 28.0589 150.315 27.811 150.315 27.478V25.5088H150.802V27.3576C150.802 27.6622 150.816 27.8747 150.852 28.0093C150.888 28.1368 150.952 28.2289 151.038 28.2643C151.131 28.3068 151.282 28.3281 151.496 28.3281C151.733 28.3281 151.897 28.2856 152.005 28.1935C152.112 28.1085 152.177 27.981 152.205 27.8322C152.234 27.6764 152.248 27.4568 152.248 27.1663V25.5088H152.735V28.3068C152.735 28.7531 152.707 29.0931 152.642 29.3268C152.578 29.5606 152.456 29.7306 152.27 29.8439C152.084 29.9502 151.804 30.0069 151.418 30.0069Z" fill="#2E4760"/>
<path d="M153.931 28.7249V25.9269H153.366V25.5161H153.931V24.5811H154.411V25.5161H155.084V25.9269H154.411V28.7249H153.931Z" fill="#2E4760"/>
<path d="M159.295 26.8762C159.295 26.5716 159.28 26.352 159.252 26.2245C159.223 26.097 159.173 26.012 159.087 25.9695C159.008 25.927 158.872 25.9057 158.679 25.9057C158.464 25.9057 158.306 25.9482 158.206 26.0262C158.106 26.1112 158.049 26.2245 158.02 26.3733C157.991 26.522 157.984 26.7487 157.984 27.0533V28.725H157.497V26.8691C157.497 26.5645 157.483 26.3449 157.454 26.2174C157.426 26.0899 157.375 26.0049 157.29 25.9624C157.211 25.9199 157.075 25.8987 156.881 25.8987C156.667 25.8987 156.516 25.9412 156.416 26.0262C156.316 26.1112 156.251 26.2316 156.23 26.3874C156.201 26.5433 156.194 26.7629 156.194 27.0533V28.725H155.707V25.5091H156.137L156.165 25.9624H156.194C156.251 25.7995 156.351 25.6791 156.488 25.5941C156.624 25.5091 156.824 25.4595 157.082 25.4595C157.34 25.4595 157.533 25.4949 157.662 25.5728C157.791 25.6507 157.877 25.7782 157.92 25.9624H157.956C158.013 25.7995 158.113 25.6791 158.256 25.5941C158.399 25.5091 158.6 25.4595 158.858 25.4595C159.116 25.4595 159.302 25.502 159.431 25.587C159.56 25.672 159.645 25.7995 159.688 25.9695C159.739 26.1395 159.76 26.3803 159.76 26.6849V28.7179H159.273V26.8762H159.295Z" fill="#2E4760"/>
<path d="M160.72 24.5952V24.0498H161.235V24.5952H160.72ZM160.734 28.725V25.509H161.221V28.725H160.734Z" fill="#2E4760"/>
<path d="M160.82 32.5288V31.9834H161.335V32.5288H160.82ZM160.834 36.6586V33.4426H161.321V36.6586H160.834Z" fill="#2E4760"/>
<path d="M164.028 28.6967C163.928 28.7179 163.799 28.7392 163.656 28.7533C163.512 28.7675 163.369 28.7817 163.247 28.7817C162.889 28.7817 162.632 28.725 162.46 28.6117C162.295 28.4983 162.18 28.3354 162.138 28.1087C162.087 27.8891 162.066 27.5562 162.066 27.117C162.066 26.6778 162.095 26.3449 162.152 26.1182C162.209 25.8916 162.324 25.7216 162.488 25.6153C162.653 25.5091 162.904 25.4595 163.226 25.4595C163.355 25.4595 163.498 25.4666 163.641 25.4878C163.784 25.502 163.906 25.5232 164.006 25.5445V25.9412C163.792 25.8987 163.577 25.8774 163.341 25.8774C163.104 25.8774 162.932 25.9057 162.825 25.9695C162.718 26.0332 162.646 26.1466 162.61 26.3166C162.574 26.4866 162.553 26.7487 162.553 27.117C162.553 27.4925 162.574 27.7616 162.61 27.9246C162.646 28.0875 162.725 28.2008 162.832 28.2646C162.94 28.3283 163.119 28.3567 163.355 28.3567C163.584 28.3567 163.806 28.3354 164.028 28.2929V28.6967V28.6967Z" fill="#2E4760"/>
<path d="M166.599 28.7247L165.625 27.3151H165.245V28.7247H164.766V24.0425H165.245V26.8901H165.625L166.599 25.5159H167.129L166.019 27.0672L167.15 28.7247H166.599Z" fill="#2E4760"/>
<path d="M147.48 34.8098C147.48 34.5052 147.465 34.2856 147.437 34.1581C147.408 34.0306 147.358 33.9456 147.272 33.9031C147.193 33.8606 147.057 33.8393 146.864 33.8393C146.649 33.8393 146.491 33.8818 146.391 33.9598C146.291 34.0448 146.234 34.1581 146.205 34.3068C146.176 34.4556 146.169 34.6823 146.169 34.9869V36.6586H145.682V34.8027C145.682 34.4981 145.668 34.2785 145.639 34.151C145.611 34.0235 145.561 33.9385 145.475 33.896C145.396 33.8535 145.26 33.8322 145.066 33.8322C144.852 33.8322 144.701 33.8747 144.601 33.9598C144.501 34.0448 144.436 34.1652 144.415 34.321C144.386 34.4769 144.379 34.6964 144.379 34.9869V36.6586H143.892V33.4427H144.322L144.35 33.896H144.379C144.436 33.7331 144.537 33.6127 144.673 33.5277C144.809 33.4427 145.009 33.3931 145.267 33.3931C145.525 33.3931 145.718 33.4285 145.847 33.5064C145.976 33.5843 146.062 33.7118 146.105 33.896H146.141C146.198 33.7331 146.298 33.6127 146.441 33.5277C146.585 33.4427 146.785 33.3931 147.043 33.3931C147.301 33.3931 147.487 33.4356 147.616 33.5206C147.745 33.6056 147.83 33.7331 147.873 33.9031C147.924 34.0731 147.945 34.3139 147.945 34.6185V36.6515H147.458V34.8098H147.48Z" fill="#2E4760"/>
<path d="M149.685 36.7153C149.348 36.7153 149.098 36.6444 148.954 36.5098C148.804 36.3753 148.732 36.1273 148.732 35.7731C148.732 35.5323 148.761 35.3411 148.811 35.1994C148.861 35.0648 148.954 34.9656 149.083 34.9019C149.212 34.8381 149.391 34.8098 149.628 34.8098C149.749 34.8098 150.093 34.8169 150.666 34.8381V34.6256C150.666 34.3635 150.644 34.1793 150.601 34.066C150.558 33.9527 150.48 33.8818 150.372 33.8535C150.258 33.8252 150.071 33.8039 149.799 33.8039C149.678 33.8039 149.527 33.811 149.348 33.8252C149.169 33.8393 149.019 33.8535 148.911 33.8677V33.4781C149.212 33.4214 149.556 33.3931 149.95 33.3931C150.286 33.3931 150.544 33.4285 150.709 33.5064C150.873 33.5772 150.988 33.7047 151.052 33.8748C151.117 34.0448 151.146 34.2998 151.146 34.6327V36.6586H150.716L150.687 36.2123H150.659C150.58 36.4107 150.458 36.5453 150.286 36.609C150.114 36.6798 149.914 36.7153 149.685 36.7153ZM149.857 36.2973C150.036 36.2973 150.179 36.2761 150.293 36.2407C150.408 36.2052 150.487 36.1344 150.544 36.0211C150.623 35.8582 150.666 35.6386 150.666 35.3623V35.1781H149.756C149.599 35.1781 149.484 35.1923 149.413 35.2206C149.341 35.249 149.284 35.2985 149.255 35.3765C149.227 35.4544 149.212 35.5748 149.212 35.7377C149.212 35.9007 149.227 36.014 149.262 36.0919C149.298 36.1698 149.355 36.2194 149.448 36.2478C149.534 36.2832 149.67 36.2973 149.857 36.2973Z" fill="#2E4760"/>
<path d="M153.044 36.715C152.886 36.715 152.707 36.7079 152.514 36.6867C152.32 36.6725 152.148 36.6513 152.012 36.63V36.2333C152.349 36.2758 152.678 36.2971 153.015 36.2971C153.201 36.2971 153.337 36.2829 153.43 36.2475C153.516 36.2121 153.581 36.1625 153.609 36.0917C153.638 36.0208 153.652 35.9146 153.652 35.78C153.652 35.6312 153.645 35.525 153.624 35.4683C153.602 35.4046 153.573 35.3621 153.523 35.3408C153.473 35.3196 153.394 35.3054 153.287 35.2912L152.549 35.1991C152.306 35.1708 152.141 35.0929 152.062 34.9725C151.977 34.845 151.934 34.6395 151.934 34.342C151.934 34.0799 151.977 33.8816 152.07 33.747C152.156 33.6124 152.284 33.5203 152.442 33.4707C152.607 33.4212 152.814 33.3999 153.079 33.3999C153.223 33.3999 153.38 33.407 153.552 33.4282C153.724 33.4424 153.867 33.4637 153.982 33.492V33.8887C153.731 33.8391 153.43 33.8178 153.079 33.8178C152.915 33.8178 152.786 33.8249 152.7 33.8462C152.614 33.8674 152.542 33.9099 152.492 33.9878C152.442 34.0587 152.421 34.1649 152.421 34.3137C152.421 34.4483 152.428 34.5474 152.449 34.6041C152.471 34.6679 152.499 34.7104 152.549 34.7316C152.6 34.7529 152.671 34.7741 152.779 34.7883L153.509 34.8733C153.674 34.8875 153.803 34.9229 153.888 34.9725C153.974 35.022 154.039 35.107 154.082 35.2275C154.125 35.3479 154.146 35.525 154.146 35.7658C154.146 36.0208 154.11 36.2121 154.032 36.3467C153.953 36.4813 153.838 36.5804 153.681 36.63C153.502 36.6867 153.301 36.715 153.044 36.715Z" fill="#2E4760"/>
<path d="M155.672 36.7152C155.335 36.7152 155.084 36.6444 154.941 36.5098C154.791 36.3752 154.719 36.1273 154.719 35.7731C154.719 35.5323 154.748 35.341 154.798 35.1993C154.848 35.0648 154.941 34.9656 155.07 34.9018C155.199 34.8381 155.378 34.8097 155.614 34.8097C155.736 34.8097 156.08 34.8168 156.653 34.8381V34.6256C156.653 34.3635 156.631 34.1793 156.588 34.066C156.545 33.9526 156.466 33.8818 156.359 33.8535C156.244 33.8251 156.058 33.8039 155.786 33.8039C155.664 33.8039 155.514 33.811 155.335 33.8251C155.156 33.8393 155.006 33.8535 154.898 33.8676V33.478C155.199 33.4214 155.543 33.393 155.937 33.393C156.273 33.393 156.531 33.4284 156.696 33.5064C156.86 33.5772 156.975 33.7047 157.039 33.8747C157.104 34.0447 157.132 34.2997 157.132 34.6327V36.6586H156.703L156.674 36.2123H156.645C156.567 36.4106 156.445 36.5452 156.273 36.609C156.101 36.6798 155.901 36.7152 155.672 36.7152ZM155.843 36.2973C156.022 36.2973 156.166 36.276 156.28 36.2406C156.395 36.2052 156.474 36.1344 156.531 36.021C156.61 35.8581 156.653 35.6385 156.653 35.3623V35.1781H155.743C155.586 35.1781 155.471 35.1923 155.4 35.2206C155.328 35.2489 155.271 35.2985 155.242 35.3764C155.213 35.4544 155.199 35.5748 155.199 35.7377C155.199 35.9006 155.213 36.014 155.249 36.0919C155.285 36.1698 155.342 36.2194 155.435 36.2477C155.521 36.2831 155.657 36.2973 155.843 36.2973ZM155.758 32.8688V32.8405L156.259 31.9834H156.782V32.0117L156.123 32.8688H155.758Z" fill="#2E4760"/>
<path d="M157.891 36.6586V36.2831L159.538 33.8605H157.956V33.4426H160.147V33.818L158.5 36.2406H160.161V36.6586H157.891ZM158.793 32.8547L158.221 32.0188V31.9834H158.557L159.051 32.5855L159.545 31.9834H159.889V32.0188L159.309 32.8547H158.793Z" fill="#2E4760"/>
<path d="M161.973 37.1756C162.116 37.1756 162.209 37.1473 162.252 37.0977C162.295 37.0481 162.316 36.9348 162.316 36.7648V36.6585H162.094V36.0635H162.66V36.5735C162.66 36.8143 162.646 36.9914 162.61 37.1048C162.574 37.2181 162.51 37.296 162.417 37.3456C162.324 37.3952 162.173 37.4164 161.973 37.4164V37.1756V37.1756Z" fill="#2E4760"/>
<path d="M164.672 36.6586V36.2831L166.326 33.8676H164.737V33.4497H166.928V33.8251L165.281 36.2477H166.942V36.6586H164.672Z" fill="#2E4760"/>
<path d="M167.601 36.6582V36.0703H168.167V36.6582H167.601Z" fill="#2E4760"/>
<path d="M169.964 36.715C169.807 36.715 169.628 36.7079 169.435 36.6867C169.241 36.6725 169.069 36.6513 168.933 36.63V36.2333C169.27 36.2758 169.599 36.2971 169.936 36.2971C170.122 36.2971 170.258 36.2829 170.351 36.2475C170.437 36.2121 170.501 36.1625 170.53 36.0917C170.559 36.0208 170.573 35.9146 170.573 35.78C170.573 35.6312 170.566 35.525 170.544 35.4683C170.523 35.4046 170.494 35.3621 170.444 35.3408C170.394 35.3196 170.315 35.3054 170.208 35.2912L169.47 35.1991C169.227 35.1708 169.062 35.0929 168.983 34.9725C168.897 34.845 168.854 34.6395 168.854 34.342C168.854 34.0799 168.897 33.8816 168.991 33.747C169.076 33.6124 169.205 33.5203 169.363 33.4707C169.528 33.4212 169.735 33.3999 170 33.3999C170.143 33.3999 170.301 33.407 170.473 33.4282C170.645 33.4424 170.788 33.4637 170.902 33.492V33.8887C170.652 33.8391 170.351 33.8178 170 33.8178C169.836 33.8178 169.707 33.8249 169.621 33.8462C169.535 33.8674 169.463 33.9099 169.413 33.9878C169.363 34.0587 169.341 34.1649 169.341 34.3137C169.341 34.4483 169.349 34.5474 169.37 34.6041C169.392 34.6679 169.42 34.7104 169.47 34.7316C169.52 34.7529 169.592 34.7741 169.699 34.7883L170.43 34.8733C170.595 34.8875 170.723 34.9229 170.809 34.9725C170.895 35.022 170.96 35.107 171.003 35.2275C171.046 35.3479 171.067 35.525 171.067 35.7658C171.067 36.0208 171.031 36.2121 170.953 36.3467C170.874 36.4813 170.759 36.5804 170.602 36.63C170.43 36.6867 170.222 36.715 169.964 36.715Z" fill="#2E4760"/>
<path d="M171.733 36.6582V36.0703H172.291V36.6582H171.733Z" fill="#2E4760"/>
<path d="M136.588 40.2427V4.59814H136.846V40.2427H136.588Z" fill="#2E4760"/>
<path d="M168.575 24.9353V24.9069L169.076 24.0498H169.599V24.0781L168.94 24.9353H168.575Z" fill="#2E4760"/>
<path d="M170.1 27.287H168.145C168.145 27.6129 168.167 27.8466 168.203 27.9954C168.238 28.1371 168.317 28.2362 168.446 28.2929C168.575 28.3496 168.775 28.3779 169.069 28.3779C169.341 28.3779 169.649 28.3566 169.993 28.3071V28.6967C169.878 28.725 169.721 28.7462 169.534 28.7604C169.341 28.7746 169.155 28.7887 168.969 28.7887C168.575 28.7887 168.289 28.7392 168.109 28.64C167.923 28.5408 167.809 28.3779 167.751 28.1583C167.694 27.9387 167.666 27.5987 167.666 27.1383C167.666 26.6849 167.694 26.3449 167.744 26.1253C167.794 25.9057 167.909 25.7428 168.088 25.6366C168.267 25.5303 168.553 25.4736 168.947 25.4736C169.312 25.4736 169.577 25.5232 169.735 25.6295C169.9 25.7357 170 25.8916 170.043 26.1112C170.086 26.3307 170.107 26.6708 170.107 27.1383V27.287H170.1ZM168.926 25.8774C168.682 25.8774 168.51 25.9057 168.41 25.9553C168.303 26.0049 168.238 26.1041 168.203 26.2387C168.167 26.3732 168.152 26.607 168.152 26.9258H169.635V26.862C169.635 26.5645 169.613 26.3449 169.577 26.2103C169.534 26.0757 169.47 25.9837 169.377 25.9411C169.27 25.8986 169.126 25.8774 168.926 25.8774Z" fill="#2E4760"/>
</g>
<defs>
<clipPath id="clip0_196_313">
<rect width="211.64" height="36.5993" fill="white" transform="translate(0.5 4.22168)"/>
</clipPath>
<clipPath id="clip1_196_313">
<rect width="85.9289" height="44.5557" fill="white" transform="translate(99.1875 0.142578)"/>
</clipPath>
</defs>
</svg>
