<svg width="19" height="19" viewBox="0 0 19 19" fill="none" xmlns="http://www.w3.org/2000/svg">
<path d="M4.09724 0.000488281C2.27656 0.000488281 0.810547 1.54794 0.810547 3.46977V15.5312C0.810547 17.4531 2.27656 19.0005 4.09724 19.0005H10.2904V11.5727H8.42962V8.89843H10.2904V6.61368C10.2904 4.81866 11.3898 3.17052 13.9224 3.17052C14.9479 3.17052 15.7061 3.27444 15.7061 3.27444L15.6465 5.77176C15.6465 5.77176 14.8732 5.76404 14.0293 5.76404C13.116 5.76404 12.9695 6.20822 12.9695 6.94561V8.89845H15.719L15.5992 11.5727H12.9695V19.0005H15.5239C17.3445 19.0005 18.8105 17.4531 18.8105 15.5312V3.46979C18.8105 1.54796 17.3445 0.000507281 15.5239 0.000507281H4.09722L4.09724 0.000488281Z" fill="#2E4760"/>
</svg>
