<svg width="17" height="17" viewBox="0 0 17 17" fill="none" xmlns="http://www.w3.org/2000/svg">
<path d="M12.0553 10.1924C12.1187 9.66988 12.1662 9.14738 12.1662 8.60905C12.1662 8.07072 12.1187 7.54822 12.0553 7.02572H14.7312C14.8578 7.53238 14.937 8.0628 14.937 8.60905C14.937 9.1553 14.8578 9.68572 14.7312 10.1924M10.6541 14.594C11.1291 13.7153 11.4933 12.7653 11.7466 11.7757H14.082C13.315 13.0964 12.0982 14.0969 10.6541 14.594M10.4562 10.1924H6.75118C6.67201 9.66988 6.62451 9.14738 6.62451 8.60905C6.62451 8.07072 6.67201 7.5403 6.75118 7.02572H10.4562C10.5274 7.5403 10.5828 8.07072 10.5828 8.60905C10.5828 9.14738 10.5274 9.66988 10.4562 10.1924ZM8.60368 14.9107C7.94659 13.9607 7.41618 12.9078 7.09159 11.7757H10.1158C9.79118 12.9078 9.26076 13.9607 8.60368 14.9107ZM5.43701 5.44238H3.12534C3.88444 4.11809 5.10039 3.11606 6.54534 2.62405C6.07034 3.5028 5.71409 4.4528 5.43701 5.44238ZM3.12534 11.7757H5.43701C5.71409 12.7653 6.07034 13.7153 6.54534 14.594C5.10342 14.0966 3.88918 13.096 3.12534 11.7757M2.47618 10.1924C2.34951 9.68572 2.27034 9.1553 2.27034 8.60905C2.27034 8.0628 2.34951 7.53238 2.47618 7.02572H5.15201C5.08868 7.54822 5.04118 8.07072 5.04118 8.60905C5.04118 9.14738 5.08868 9.66988 5.15201 10.1924M8.60368 2.29947C9.26076 3.24947 9.79118 4.3103 10.1158 5.44238H7.09159C7.41618 4.3103 7.94659 3.24947 8.60368 2.29947M14.082 5.44238H11.7466C11.4988 4.46187 11.1319 3.51538 10.6541 2.62405C12.1108 3.1228 13.322 4.12822 14.082 5.44238ZM8.60368 0.692383C4.22576 0.692383 0.687012 4.25488 0.687012 8.60905C0.687012 10.7087 1.52109 12.7223 3.00575 14.207C3.74088 14.9421 4.61361 15.5252 5.5741 15.9231C6.53459 16.3209 7.56405 16.5257 8.60368 16.5257C10.7033 16.5257 12.7169 15.6916 14.2016 14.207C15.6863 12.7223 16.5203 10.7087 16.5203 8.60905C16.5203 7.56942 16.3156 6.53997 15.9177 5.57947C15.5199 4.61898 14.9367 3.74625 14.2016 3.01112C13.4665 2.27599 12.5937 1.69285 11.6333 1.295C10.6728 0.897153 9.64331 0.692383 8.60368 0.692383V0.692383Z" fill="#345159"/>
</svg>
